<svg viewBox="0 0 1198 617.1"><g data-name="Layer 1"><path fill="#032b49" d="M1198 0c-2.2 132.4.1 499.3 0 499.7-6.3 20.7-158.2 97.5-266.8 28-96.1-61.4-5-212.7-81.1-286.2-54.3-52.4-112.5-44.4-161.8-25.7-116.7 44.2-175.3-4.2-226.6-9.2C361.7 197 325.8 273 324.6 329c-5.7 260.5-164 282.7-225.3 278C19.8 600.5 0 547.5 0 547.5V0z" opacity=".2"/><path fill="#fadb86" d="M555.6 163.2c.3 2 .8 4.7 3 5.5 1.8.6 3.8 0 5.4-.8 5.4-2.2 10.5-4.8 15.7-7.3q17.2-8.2 34-17a589.2 589.2 0 0030.8-16.8c1.7-1 3.9-2.3 4.4-4.3.5-2.4-1.9-3.7-3.7-4.4-3.6-1.3-7.4-2.3-11.1-3.4-16.1-4.7-32.3-9.3-48.6-13.2l.5 1.8c4.8-5.5 9.1-11.4 13.5-17.2 2.1-3 4.3-5.8 6.5-8.7l3.2-4.2a7 7 0 001.4-2.6c.4-2.3-1.6-3.5-3.5-4-3.3-1-6.7-1.4-10-2l-21.5-4.2c-8.4-1.5-16.7-2.9-25.1-4.1-.7-.1-1.5.2-1.4 1l1 15.8 1.6 26 1.7 28.8 1.6 23.7c.2 3.8.3 7.7.7 11.4a.9.9 0 010 .2c0 1.4 2.3 1.4 2.2 0l-.6-9.3-1.3-22.7-1.8-28.6-1.7-26.7-1-17.5c0-.3 0-.7-.2-1l-1.3 1c13.8 2 27.6 4.5 41.3 7.2l10 2 4.5 1c.7.1 2.3.3 2.6 1.1.2.6-.3 1.3-.5 1.7l-3 4-6.3 8.2c-4.6 6.1-9.1 12.3-14.1 18.2a1.1 1.1 0 00.5 1.8c13.5 3.3 27 7 40.3 10.9l10 3 5.1 1.5a26.3 26.3 0 015.3 1.8c.5.3 1.1.6 1 1.3-.3.9-1.5 1.7-2.1 2.2l-4 2.4c-7.8 4.6-15.7 8.7-23.7 12.9q-15.4 8-31.1 15.7l-17.5 8.3a42.4 42.4 0 01-7 3 2.8 2.8 0 01-2.2 0c-1-.7-1.2-2.3-1.3-3.4 0-1.4-2.3-1.4-2.1 0z"/><path fill="#7895a4" d="M565.9 157.8c18.3-9.3 36.8-18 55.5-26.4l6.8-3 2.8-1.3c1-.5 2.4-1 2.8-2.1.8-2.4-2.6-3.4-4.2-3.9l-9.3-2.6-40.5-11.2c-1-.3-3.9-.5-4-2-.1-1.1 1-2.5 1.6-3.4 2-3 4-6 6.2-8.8 4.7-6.3 9.5-12.5 14.1-18.9.6-.7-.2-1.5-1-1.6-12.2-1.6-24.3-3.8-36.5-5.5-.7-.1-1.5.2-1.4 1l.5 8.8 1.3 21.2 1.6 25.6 1.3 22.2c.3 3.6.3 7.2.7 10.8a.8.8 0 010 .1c0 1.4 2.3 1.4 2.2 0l-.5-8.8-1.3-21.2-1.6-25.5-1.4-22.2-.4-7.3a19.1 19.1 0 00-.2-3.5.4.4 0 010-.2l-1.4 1.1c12.4 1.7 24.7 4 37.1 5.6l-1-1.7c-4 5.7-8.3 11.1-12.5 16.7l-5.8 8c-1.3 2-3.3 4.2-3.8 6.6-.5 2.6 1.4 3.8 3.7 4.4l10.4 3 20 5.5 19.6 5.4a13.6 13.6 0 014 1.4s.3.4.3.2-.1 0-.2 0a8.5 8.5 0 01-2 1l-6.4 2.9a1340 1340 0 00-58.3 27.7c-1.2.6 0 2.5 1.2 1.9z"/><circle cx="348.5" cy="105.3" r="49.5" fill="#f09d74" stroke="#f2ead3" stroke-miterlimit="10" stroke-width=".5"/><path fill="none" stroke="#f2ead3" stroke-miterlimit="10" stroke-width=".5" d="M386.1 73.2c15.9-8.1 26.9-12 28.5-9.5 2.8 4.4-24 26.6-60 49.5s-67.4 38-70.2 33.6c-1.5-2.5 6-10.4 19.3-20.8"/><circle cx="80" cy="480.6" r="37.5" fill="#d25b46" stroke="#f2ead3" stroke-miterlimit="10" stroke-width=".6"/><path fill="none" stroke="#f2ead3" stroke-miterlimit="10" stroke-width=".6" d="M117.4 478.3c13.3 2.3 21.8 5 21.6 7.2-.3 4-26.7 5.2-59 2.7s-58.1-7.6-57.8-11.5c.2-2.2 8.3-3.6 21.1-4"/><path fill="none" stroke="#f2ead3" stroke-miterlimit="10" stroke-width=".6" d="M116.6 490.4c11.9 6.5 19 11.7 18.1 13.8-1.6 3.6-27-3.8-56.7-16.5s-52.6-26-51-29.6c.9-2 9-.6 21.3 3.1"/><circle cx="852.7" cy="73.7" r="33.5" fill="#992676" stroke="#f2ead3" stroke-miterlimit="10" stroke-width=".5"/><path fill="none" stroke="#f2ead3" stroke-miterlimit="10" stroke-width=".5" d="M884 85.5c10 6.8 16 12.1 15 13.9-1.7 3-23.6-5.7-49-19.5S805.4 52.2 807 49c1-1.7 8.1.2 18.6 4.6"/><path fill="none" stroke="#f2ead3" stroke-miterlimit="10" stroke-width=".5" d="M884.5 84.3c11.5 7.8 22.1 17.5 21 19.5-2 3.5-27-6.5-56.1-22.4s-51-31.7-49.1-35.2c1-2 12.5-.1 26.2 6.5"/><g fill="#f8f3dc"><circle cx="839.8" cy="110.8" r="1.6"/><path d="M738.7 164.4a.8.8 0 00-1.6 0 .8.8 0 001.6 0z"/><circle cx="519.4" cy="129.6" r=".8"/><circle cx="732.7" cy="173" r=".8"/><circle cx="13.3" cy="50.3" r=".8"/><path d="M46.4 24.7a.8.8 0 00-.7-.8.8.8 0 00-.8.6.8.8 0 101.5.2zM34 38.4a.8.8 0 00-.8-.8.8.8 0 00-.8.8.8.8 0 00.8.8.8.8 0 00.7-.8z"/><circle cx="744.1" cy="173.8" r=".8"/><circle cx="26.2" cy="19.5" r=".8"/><path d="M1165 74.2a.8.8 0 00.5-1 .8.8 0 00-1.5.4.8.8 0 001 .6zM1179 54.4a.8.8 0 10-1-.5.8.8 0 001 .5zM1155.3 71.6a.8.8 0 10-1-.5.8.8 0 001 .5zM755.7 150.5a.8.8 0 10-1-.5.8.8 0 001 .5zM428 115.5a.8.8 0 00.7-.7.8.8 0 00-.7-.8.8.8 0 000 1.5zM920.5 87.5a.8.8 0 10-.7-.8.8.8 0 00.7.8zM912.6 75.6a.8.8 0 00.8-.8.8.8 0 00-.7-.8.8.8 0 000 1.6zM901.5 100.3a.8.8 0 001-.6.8.8 0 00-.7-.9.8.8 0 00-1 .6.8.8 0 00.7 1zM888.3 87.5a.8.8 0 10-.8-.8.8.8 0 00.8.8zM910.6 95.5a.8.8 0 10-.8-.8.8.8 0 00.8.8zM907.3 81a.8.8 0 10-.7-.8.8.8 0 00.7.8zM895.5 68.6a.8.8 0 10-.8-.8.8.8 0 00.8.8zM229.8 106.5a.8.8 0 00.8-.7.8.8 0 00-.8-.8.8.8 0 00-.8.7.8.8 0 00.8.8zM228.2 118a.8.8 0 00.8-.8.8.8 0 00-.7-.8.8.8 0 00-.8.8.8.8 0 00.7.8zM220.3 106a.8.8 0 10-.8-.8.8.8 0 00.8.8zM949.1 91a.8.8 0 001-.6.8.8 0 00-1.6-.3.8.8 0 00.6.9zM196 118a.8.8 0 10-.8-.8.8.8 0 00.7.8zM171.8 112.3a.8.8 0 10-.8-.8.8.8 0 00.8.8zM925.3 107.8a.8.8 0 10-.7-.8.8.8 0 00.7.8zM695 96.5a.8.8 0 00.9-.7.8.8 0 10-.8.8zM693.5 108a.8.8 0 00.8-.8.8.8 0 00-.7-.8.8.8 0 000 1.6zM685.6 96a.8.8 0 00.8-.7.8.8 0 00-.7-.8.8.8 0 00-.8.8.8.8 0 00.7.8zM94.4 89a.8.8 0 10-.8-.8.8.8 0 00.8.8zM75.4 101.8a.8.8 0 00.9-.6.8.8 0 10-1 .6zM84.5 97a.8.8 0 100-1.6.8.8 0 00-.8.8.8.8 0 00.8.8zM72.2 78a.8.8 0 00.8-.7.8.8 0 10-.8.7zM997 128.8a.8.8 0 10-.8-.8.8.8 0 00.8.8zM995.5 140.3a.8.8 0 00.8-.8.8.8 0 10-1.6 0 .8.8 0 00.8.8zM987.6 128.3a.8.8 0 10-.8-.8.8.8 0 00.8.8zM994.3 104.5a.8.8 0 10.2-1.5.8.8 0 00-.9.6.8.8 0 00.7 1zM970.4 121.3a.8.8 0 100-1.5.8.8 0 00-.7.7.8.8 0 00.7.8zM1127.2 121.6a.8.8 0 001-.2.8.8 0 10-1 .2z"/><circle cx="659.1" cy="197.8" r=".8"/><path d="M382.7 143.9a.8.8 0 001.1-.2.8.8 0 00-1.3-.9.8.8 0 00.2 1.1zM1132 99.7a.8.8 0 001-.2.8.8 0 00-.1-1.1.8.8 0 00-1 .2.8.8 0 00.1 1zM379.5 125.2a.8.8 0 101.1-1.1.8.8 0 10-1 1zM386.2 157.4a.8.8 0 00-.8-.8.8.8 0 100 1.6.8.8 0 00.8-.8zM387.7 132.8a.8.8 0 10-.1-1 .8.8 0 00.1 1zM659 208.3a.8.8 0 10-.1-1 .8.8 0 00.2 1zM861.4 133.4a.8.8 0 001.1-.1.8.8 0 00-.2-1.1.8.8 0 00-1 .2.8.8 0 00.1 1zM844.9 134.2a.8.8 0 001 0 .8.8 0 10-1 0zM228.9 62a.8.8 0 00-1.6 0 .8.8 0 001.6 0zM220.4 91.5a.8.8 0 001.1-1.1.8.8 0 10-1.1 1zM227.7 78a.8.8 0 00.8-1.3.8.8 0 00-1 .1.8.8 0 00.2 1.1zM673 147a.8.8 0 00.9-1.2.8.8 0 00-1.1.2.8.8 0 00.2 1zM742.4 117a.8.8 0 00-.8-.8.8.8 0 000 1.6.8.8 0 00.8-.8zM745 128.8a.8.8 0 001.2-.2.8.8 0 10-1.1.2zM733.5 109.2a.8.8 0 101-.5.8.8 0 00-1 .5zM729.2 103a.8.8 0 101-.6.8.8 0 00-1 .5zM1115 85.6a.8.8 0 101-.5.8.8 0 00-1 .5zM1128.4 80.3a.8.8 0 101-.6.8.8 0 00-1 .6zM643.6 207.2a.8.8 0 101-.6.8.8 0 00-1 .6zM294 151.1a1.3 1.3 0 00-2.2 1.4 1.3 1.3 0 002.3-1.4zM282.4 137.7a1.3 1.3 0 101-1.6 1.3 1.3 0 00-1 1.6zM282.4 124.4a1.3 1.3 0 101-1.6 1.3 1.3 0 00-1 1.6zM300.4 127.2a1.3 1.3 0 10.8-1.6 1.3 1.3 0 00-.8 1.6zM306.9 143.8a1.3 1.3 0 10.8-1.6 1.3 1.3 0 00-.8 1.6z"/><circle cx="370.5" cy="104" r=".8"/><path d="M362.8 133.5a.8.8 0 001.1 0 .8.8 0 10-1-1.1.8.8 0 000 1.1zM341 132.8a.8.8 0 001-.2.8.8 0 00-.1-1 .8.8 0 10-.9 1.2zM341.8 147.7a.8.8 0 001-1.2.8.8 0 00-1.2.1.8.8 0 00.2 1.1zM344.1 106.4a.8.8 0 00.6 1 .8.8 0 10-.6-1zM617 193.5a.8.8 0 00.5 1 .8.8 0 10-.6-1zM1057.7 167a.8.8 0 10.9-.6.8.8 0 00-1 .6zM65.7 89a.8.8 0 101-.6.8.8 0 00-1 .6zM1188.7 62.3a.8.8 0 101-.4.8.8 0 00-1 .4zM1191.5 72.2a.8.8 0 00.6 1 .8.8 0 10-.6-1zM1192.3 88.6a.8.8 0 101-.6.8.8 0 00-1 .6zM323.7 115.5a.8.8 0 101.5.4.8.8 0 00-1.5-.4zM326 106.4a.8.8 0 101-.6.8.8 0 00-1 .6zM348 117.7a.8.8 0 101-.4.8.8 0 00-1 .4zM1176.6 84.2a.8.8 0 101.5.3.8.8 0 00-.5-1 .8.8 0 00-1 .7zM35 47.4a.8.8 0 10-1-.5.8.8 0 001 .5z"/><circle cx="323.6" cy="152.2" r=".8"/><path d="M54.4 72.8a.8.8 0 101-.6.8.8 0 00-1 .5zM323.5 133.3a.8.8 0 00.5.9.8.8 0 001-.6.8.8 0 10-1.5-.4zM61.5 45.4a.8.8 0 00.6 1 .8.8 0 10-.6-1zM54.7 41a.8.8 0 101-.6.8.8 0 00-1 .6zM36.3 72.8a.8.8 0 00.6.9.8.8 0 001-.6.8.8 0 00-1.6-.3zM46.6 57.4a.8.8 0 101-.6.8.8 0 00-1 .6zM1057 104.7a.8.8 0 10.2-1.1.8.8 0 00-.2 1zM1056.3 94.6a.8.8 0 001 .2.8.8 0 10-1-.2zM464.2 86.3a.8.8 0 001 .4.8.8 0 00-.7-1.4.8.8 0 00-.3 1zM1056.2 136.7a.8.8 0 001 .2.8.8 0 00.3-1.1.8.8 0 10-1.3.9zM1046.5 100.5a.8.8 0 001 .2.8.8 0 10-1-.2zM976.3 134.3a.8.8 0 001 .2.8.8 0 00.3-1 .8.8 0 00-1.1-.2.8.8 0 00-.2 1zM1057.4 69.1a.8.8 0 001.3-.9.8.8 0 00-1.1-.2.8.8 0 00-.2 1.1zM472.2 127.7a.8.8 0 00.1 1 .8.8 0 001-1.2.8.8 0 00-1.1.2zM459.1 124.2a.8.8 0 101.1-.2.8.8 0 00-1 .2zM493.8 133.9a.8.8 0 101-.1.8.8 0 00-1 .1zM249 82.2a.8.8 0 10-1.5-.3.8.8 0 00.6.9.8.8 0 00.9-.6zM680.1 35.6a.8.8 0 10-.4-1.5.8.8 0 00-.6 1 .8.8 0 001 .5zM714.1 55.6a.8.8 0 10-.7-.8.8.8 0 00.7.8zM698 52.1a.8.8 0 00.8-.8.8.8 0 10-.8.8zM289.9 54a.8.8 0 00.8-.8.8.8 0 00-.8-.8.8.8 0 00-.8.7.8.8 0 00.8.8zM576 8.6a.8.8 0 10-.8-.8.8.8 0 00.8.8zM445.4 7.5a.8.8 0 00.8-.7.8.8 0 00-.7-.8.8.8 0 000 1.6zM688.9 52.3a.8.8 0 00-1-.5.8.8 0 10.6 1.5.8.8 0 00.4-1zM703.7 41.9a.8.8 0 10-.4 1 .8.8 0 00.4-1zM679.2 45.2a.8.8 0 00-1-.6.8.8 0 00-.5 1 .8.8 0 101.5-.4zM887.5 102a.8.8 0 00.8-.9.8.8 0 00-.8-.8.8.8 0 00-.8.8.8.8 0 00.8.8zM857.9 54.3a.8.8 0 00.8-.7.8.8 0 00-.8-.8.8.8 0 00-.8.7.8.8 0 00.8.8zM850 42.4a.8.8 0 10-.8-.8.8.8 0 00.8.8zM837.1 67.2a.8.8 0 001-.7.8.8 0 00-1.6-.3.8.8 0 00.6 1zM288.7 88.4a.8.8 0 00.8-.8.8.8 0 00-.8-.8.8.8 0 000 1.6zM848 62.4a.8.8 0 100-1.6.8.8 0 100 1.6zM844.7 47.9a.8.8 0 00.8-.8.8.8 0 00-.8-.8.8.8 0 00-.8.8.8.8 0 00.8.8zM292.4 107.3a.8.8 0 10-.8-.8.8.8 0 00.8.8zM127.5 91.6a.8.8 0 10.3-1.5.8.8 0 00-.3 1.5zM865.3 86.7a.8.8 0 00.8-.7.8.8 0 10-1.6 0 .8.8 0 00.8.7zM150.4 106a.8.8 0 00.8-.8.8.8 0 00-.7-.8.8.8 0 100 1.6zM126 118a.8.8 0 10-.7-.8.8.8 0 00.8.8zM315.7 130.6a.8.8 0 000-1.5.8.8 0 100 1.5zM123.6 72.7a.8.8 0 100-1.5.8.8 0 00-.8.7.8.8 0 00.8.8zM544.6 22a.8.8 0 00.8-.8.8.8 0 00-.7-.8.8.8 0 00-.8.8.8.8 0 00.7.8zM526.9 27.5a.8.8 0 00.8-.8.8.8 0 00-.8-.8.8.8 0 00-.8.8.8.8 0 00.8.8zM508 74a.8.8 0 001-.7.8.8 0 00-.7-.9.8.8 0 00-1 .6.8.8 0 00.7 1zM760.1 100.2a.8.8 0 00.6-1 .8.8 0 10-1.5.4.8.8 0 001 .6zM848 85a.8.8 0 10-1-.4.8.8 0 001 .5zM933.1 138.5a.8.8 0 10-1-.6.8.8 0 001 .6zM404.4 25.5a.8.8 0 10-1-.5.8.8 0 001 .5zM409.7 12.5a.8.8 0 10-1-.5.8.8 0 001 .5zM415.8 26.8a.8.8 0 10-1-.5.8.8 0 001 .5zM782.9 97.1a.8.8 0 00-1-.4.8.8 0 00.5 1.4.8.8 0 00.5-1zM408 72.4a.8.8 0 10-.4 1 .8.8 0 00.5-1zM366 108.5a.8.8 0 00-1-.6.8.8 0 00-.6 1 .8.8 0 101.5-.4zM258.1 106.3a.8.8 0 10-.6-.9.8.8 0 00.6 1zM502.5 39.4a.8.8 0 00.8-.8.8.8 0 10-1.6 0 .8.8 0 00.8.8zM521.6 33a.8.8 0 100-1.6.8.8 0 100 1.6zM509.7 20.5a.8.8 0 00.8-.8.8.8 0 00-.7-.8.8.8 0 00-.8.8.8.8 0 00.7.8zM493.5 15.6a.8.8 0 10-.8-.8.8.8 0 00.8.8zM501.7 53.8a.8.8 0 10-.7-.8.8.8 0 00.7.8zM457 27.5a.8.8 0 00.8-.8.8.8 0 00-.8-.8.8.8 0 000 1.6zM463.9 52.2a.8.8 0 00.9-.6.8.8 0 00-1.5-.3.8.8 0 00.6 1zM479.5 38.6a.8.8 0 00.8-.7.8.8 0 00-.7-.8.8.8 0 00-.8.7.8.8 0 00.7.8zM451.7 33a.8.8 0 10-.8-.8.8.8 0 00.8.8zM486.8 66.7a.8.8 0 10-.7-.8.8.8 0 00.7.8zM469 37.8a.8.8 0 100-1.5.8.8 0 00-.9.7.8.8 0 00.8.8zM641.2 156.3a1.6 1.6 0 10-3.1 0 1.6 1.6 0 003 0zM965.4 95.1a1.6 1.6 0 10-1.5 1.6 1.6 1.6 0 001.5-1.6zM751.5 87.4A1.6 1.6 0 10750 89a1.6 1.6 0 001.5-1.6z"/><circle cx="257.3" cy="76.4" r="1.6"/><path d="M230.6 32.6a1.6 1.6 0 10-1.6 1.6 1.6 1.6 0 001.6-1.6zM274.4 45.4a.8.8 0 101-.6.8.8 0 00-1 .6zM263.5 41.6a.8.8 0 00.6 1 .8.8 0 00.3-1.6.8.8 0 00-1 .6zM276.8 36.2a.8.8 0 10.9-.5.8.8 0 00-1 .5zM242.3 40.8a1.6 1.6 0 10-1.6 1.5 1.6 1.6 0 001.6-1.5z"/><circle cx="364.2" cy="153.3" r="2.9"/><circle cx="727.6" cy="74.5" r="2.9"/><circle cx="940.8" cy="104.6" r="2.9"/><path d="M770.2 76.7a.8.8 0 100-1.6.8.8 0 00-.8.8.8.8 0 00.8.8zM751 47a.8.8 0 00.8-.7.8.8 0 00-.8-.8.8.8 0 00-.8.8.8.8 0 00.8.8zM743 35.1a.8.8 0 00.8-.7.8.8 0 00-.7-.8.8.8 0 00-.8.7.8.8 0 00.8.8zM732.1 55.1a.8.8 0 00.8-.7.8.8 0 00-.7-.8.8.8 0 00-.8.7.8.8 0 00.7.8zM737.8 40.6a.8.8 0 10-.8-.8.8.8 0 00.8.8zM761.6 61.5a1.6 1.6 0 10-1.5 1.5 1.6 1.6 0 001.5-1.5z"/><circle cx="488.3" cy="105.8" r="1.6"/><circle cx="1173.6" cy="34.2" r="1.6"/><circle cx="810.5" cy="109.3" r="1.6"/><path d="M279 107a.8.8 0 10-1-.5.8.8 0 001 .6zM269.2 104.5a.8.8 0 10-.4-1.5.8.8 0 00.4 1.5zM277.2 91.7a.8.8 0 10-.2-1.1.8.8 0 00.2 1zM879.1 65.5a.8.8 0 00-1.4.5.8.8 0 001 .5.8.8 0 00.4-1zM292 65.5a.8.8 0 10-1.5.3.8.8 0 001.5-.3zM294.5 101.2a.8.8 0 10-1.5.3.8.8 0 101.5-.3zM987 141.8a.8.8 0 10-.6 1 .8.8 0 00.6-1zM993.3 134.4a.8.8 0 10-.6 1 .8.8 0 00.5-1z"/><circle cx="959.7" cy="128.9" r="1.6"/><path d="M940.8 133.3a.8.8 0 00.8-.7.8.8 0 00-.8-.8.8.8 0 00-.8.7.8.8 0 00.8.8zM865.3 71.2a.8.8 0 100-1.6.8.8 0 100 1.6zM938.4 151.9a.8.8 0 00.8-.8.8.8 0 00-.8-.8.8.8 0 00-.8.8.8.8 0 00.8.8zM850.5 74a.8.8 0 10-.5 1 .8.8 0 00.5-1zM841.2 76.3a.8.8 0 10-1.5.3.8.8 0 001.5-.3zM861 74a.8.8 0 00-1-.6.8.8 0 10.4 1.5.8.8 0 00.6-1zM867.2 79.3a.8.8 0 10-1.5.3.8.8 0 00.9.6.8.8 0 00.6-1zM855.7 65.8a.8.8 0 00.8-.8.8.8 0 10-.8.8zM818 87.8a.8.8 0 00-1-.5.8.8 0 00-.5.9.8.8 0 001.5-.4zM699.3 105a.8.8 0 00.8-.7.8.8 0 00-.7-.8.8.8 0 100 1.6zM938.7 127.6a.8.8 0 10-.8-.8.8.8 0 00.8.8zM715.8 103.5a.8.8 0 10-1.5.3.8.8 0 001.5-.3zM758 107.7a.8.8 0 10-.8-.8.8.8 0 00.7.8zM756.4 119.2a.8.8 0 000-1.6.8.8 0 00-.8.8.8.8 0 00.8.8zM748.5 107.3a.8.8 0 10-.8-.8.8.8 0 00.8.8zM310.4 111.3a.8.8 0 00.8-.7.8.8 0 10-1.6 0 .8.8 0 00.8.7zM1168.7 26.4a.8.8 0 10-1.5.3.8.8 0 001.5-.3zM778.6 114.6a.8.8 0 10-.6 1 .8.8 0 00.6-1zM287.8 321.7a.8.8 0 10-.8.8.8.8 0 00.8-.8z"/><circle cx="281.8" cy="330.3" r=".8"/><circle cx="293.2" cy="331.1" r=".8"/><path d="M304.8 307.8a.8.8 0 10-1-.5.8.8 0 001 .5zM244.2 253.8a.8.8 0 00.8-.7.8.8 0 00-.8-.8.8.8 0 00-.8.7.8.8 0 00.8.8zM242.6 265.3a.8.8 0 100-1.6.8.8 0 00-.7.8.8.8 0 00.7.8zM234.7 253.3a.8.8 0 10-.8-.8.8.8 0 00.8.8z"/><circle cx="208.2" cy="355.1" r=".8"/><path d="M208.2 365.6a.8.8 0 10-.2-1.1.8.8 0 00.2 1zM222 304.3a.8.8 0 10-.2-1 .8.8 0 00.2 1zM291.5 274.3a.8.8 0 00-.8-.8.8.8 0 00-.8.8.8.8 0 00.8.7.8.8 0 00.8-.7zM294.2 286a.8.8 0 001-.1.8.8 0 00-1.2-.9.8.8 0 00.2 1zM282.6 266.5a.8.8 0 00.6 1 .8.8 0 00.9-.6.8.8 0 10-1.5-.4zM278.3 260.2a.8.8 0 101-.6.8.8 0 00-1 .6zM192.7 364.4a.8.8 0 101.5.4.8.8 0 00-.5-1 .8.8 0 00-1 .6zM166 350.8a.8.8 0 00.6.9.8.8 0 00.3-1.5.8.8 0 00-.9.6zM229.2 192.8a.8.8 0 10-1-.5.8.8 0 001 .5zM263.2 212.8a.8.8 0 00.8-.7.8.8 0 10-1.6 0 .8.8 0 00.8.7zM247 209.4a.8.8 0 00.9-.8.8.8 0 10-1.6 0 .8.8 0 00.8.8zM238 209.5a.8.8 0 10-.5 1 .8.8 0 00.4-1zM252.8 199.2a.8.8 0 10-.5 1 .8.8 0 00.5-1zM228.3 202.5a.8.8 0 10-.6.9.8.8 0 00.6-1zM309.2 257.4a.8.8 0 10-.4-1.5.8.8 0 00-.6 1 .8.8 0 001 .5zM332 254.4a.8.8 0 10-.5 1 .8.8 0 00.4-1zM190.3 313.5a1.6 1.6 0 10-1.6 1.6 1.6 1.6 0 001.6-1.6zM300.6 244.7a1.6 1.6 0 10-1.6 1.6 1.6 1.6 0 001.6-1.6z"/><circle cx="276.6" cy="231.8" r="2.9"/><path d="M319.3 234a.8.8 0 10-.8-.8.8.8 0 00.8.8zM300 204.3a.8.8 0 10-.8-.8.8.8 0 00.8.8zM292.1 192.4a.8.8 0 000-1.6.8.8 0 00-.8.8.8.8 0 00.8.8zM281.2 212.4a.8.8 0 00.8-.8.8.8 0 10-.8.8zM286.8 197.9a.8.8 0 10-.7-.8.8.8 0 00.7.8zM310.7 218.7a1.6 1.6 0 10-1.5 1.6 1.6 1.6 0 001.5-1.6zM248.4 262.3a.8.8 0 10-.8-.8.8.8 0 00.8.8zM264.9 260.7a.8.8 0 00-1-.6.8.8 0 10.4 1.5.8.8 0 00.6-.9zM307 265a.8.8 0 00.8-.8.8.8 0 00-.8-.7.8.8 0 00-.8.7.8.8 0 00.8.8zM305.4 276.4a.8.8 0 00.8-.7.8.8 0 00-.7-.8.8.8 0 000 1.6zM297.5 264.5a.8.8 0 00.8-.7.8.8 0 00-.7-.8.8.8 0 00-.8.7.8.8 0 00.7.8zM327.7 271.9a.8.8 0 00-1-.6.8.8 0 00.4 1.5.8.8 0 00.6-1zM491.9 82.3a.8.8 0 10-.8-.8.8.8 0 00.8.8zM496.1 94.6a.8.8 0 100-1.6.8.8 0 000 1.6zM500.6 86.4a.8.8 0 00.9-.8.8.8 0 00-1.7 0 .8.8 0 00.8.8z"/><circle cx="252.8" cy="543.4" r=".8"/><path d="M197.6 500.2a.8.8 0 10.3-1 .8.8 0 00-.3 1zM205.5 541.5a.8.8 0 101.1-.1.8.8 0 00-1 .1zM192.5 538a.8.8 0 001.2 1 .8.8 0 00-1.2-1zM227.1 547.8a.8.8 0 00.1 1 .8.8 0 001.1 0 .8.8 0 00-1.2-1zM309.4 422.4a.8.8 0 10-.8-.8.8.8 0 00.8.8zM278 435.9a.8.8 0 10-.8-.8.8.8 0 00.8.8zM260.2 441.3a.8.8 0 00.8-.7.8.8 0 00-.8-.8.8.8 0 00-.7.7.8.8 0 00.7.8zM241.4 487.8a.8.8 0 00.3-1.5.8.8 0 00-1 .6.8.8 0 00.7.9zM235.8 453.3a.8.8 0 00.8-.8.8.8 0 10-.8.8zM255 446.8a.8.8 0 10-.8-.8.8.8 0 00.7.8zM243 434.3a.8.8 0 00.9-.7.8.8 0 00-1.6 0 .8.8 0 00.8.7zM226.9 429.4a.8.8 0 000-1.5.8.8 0 00-.8.7.8.8 0 00.8.8zM235 467.7a.8.8 0 100-1.6.8.8 0 00-.7.8.8.8 0 00.8.8zM197.3 466.1a.8.8 0 00.2-1.5.8.8 0 00-.2 1.5zM212.9 452.5a.8.8 0 00.8-.8.8.8 0 00-.8-.8.8.8 0 00-.8.8.8.8 0 00.8.8zM220.2 480.5a.8.8 0 00.8-.7.8.8 0 10-1.6 0 .8.8 0 00.8.7zM202.3 451.7a.8.8 0 00.8-.8.8.8 0 10-1.6 0 .8.8 0 00.8.8z"/><circle cx="221.7" cy="519.7" r="1.6"/><path d="M225.3 496.2a.8.8 0 10-.8-.8.8.8 0 00.8.8zM229.5 508.4a.8.8 0 10-.8-.8.8.8 0 00.8.8zM234 500.2a.8.8 0 10-.8-.8.8.8 0 00.8.8z"/><circle cx="141.1" cy="203.5" r=".8"/><path d="M127 295a.8.8 0 10-1.5 0 .8.8 0 001.6 0zM118 493.2a.8.8 0 00-.7-.8.8.8 0 10.8.8zM129.5 494.8a.8.8 0 00-.7-.9.8.8 0 00-.8.8.8.8 0 001.5 0zM117.6 502.7a.8.8 0 00-.8-.8.8.8 0 00-.8.7.8.8 0 001.6 0zM129.5 527a.8.8 0 00-.7-.8.8.8 0 100 1.6.8.8 0 00.7-.8zM155.4 340.2a.8.8 0 10-1 .2.8.8 0 001-.2zM136.7 343.4a.8.8 0 00-1-1 .8.8 0 000 1 .8.8 0 001 0zM169 336.8a.8.8 0 10.7.8.8.8 0 00-.8-.8zM144.4 335.2a.8.8 0 10-1 .2.8.8 0 001-.2zM73.5 494a.8.8 0 00-.8.9.8.8 0 00.8.7.8.8 0 00.8-.7.8.8 0 00-.8-.8zM103 502.6a.8.8 0 00-1-1.2.8.8 0 000 1.1.8.8 0 001 0zM89.5 495.3a.8.8 0 10-1.1.2.8.8 0 001-.2zM162.7 428.9a1.3 1.3 0 101.8.5 1.3 1.3 0 00-1.8-.5zM149.3 440.5a1.3 1.3 0 10-1.7-.9 1.3 1.3 0 001.7 1zM136 440.5a1.3 1.3 0 10-1.6-.9 1.3 1.3 0 001.6 1zM138.8 422.6a1.3 1.3 0 10-1.7-.9 1.3 1.3 0 001.7.9zM155.4 416.1a1.3 1.3 0 10-1.7-.9 1.3 1.3 0 001.7.9z"/><circle cx="115.5" cy="352.4" r=".8"/><path d="M145 360.1a.8.8 0 000-1 .8.8 0 00-1 1 .8.8 0 001 0zM144.4 382a.8.8 0 10-1.3-1 .8.8 0 001.3 1zM159.3 381.1a.8.8 0 10-1.1.2.8.8 0 001-.2zM118 378.8a.8.8 0 10-.6-1 .8.8 0 00.5 1zM127.1 399.3a.8.8 0 10-.6-1 .8.8 0 00.6 1zM118 397a.8.8 0 10-.6-1 .8.8 0 00.5 1zM129.3 375a.8.8 0 001-.4.8.8 0 10-1 .4z"/><circle cx="163.7" cy="399.4" r=".8"/><path d="M144.8 399.5a.8.8 0 10-.6-1 .8.8 0 00.6 1zM97.9 258.8a.8.8 0 10-.7-1.4.8.8 0 00.7 1.4zM139.2 250.8a.8.8 0 10-.1-1.1.8.8 0 000 1zM135.7 263.8a.8.8 0 10-.1-1 .8.8 0 00.1 1zM145.4 229.2a.8.8 0 001-1.2.8.8 0 00-1 1.2zM93.7 474a.8.8 0 10.6 1 .8.8 0 00-.6-1zM65.5 433a.8.8 0 00-.8-.7.8.8 0 100 1.5.8.8 0 00.8-.7zM19 277.5a.8.8 0 10-1.5 0 .8.8 0 001.6 0zM100 434.3a.8.8 0 10-.9.7.8.8 0 00.8-.7zM118.8 430.6a.8.8 0 10-.8.7.8.8 0 00.8-.7zM142.2 407.3a.8.8 0 10-.8.7.8.8 0 00.8-.7zM39 196.1a.8.8 0 10-.8.8.8.8 0 00.8-.8zM85.5 215a.8.8 0 10-1.5-.3.8.8 0 001.5.2zM37 318.6a.8.8 0 10-.5 1 .8.8 0 00.5-1zM24 313.3a.8.8 0 10-.5 1 .8.8 0 00.6-1zM38.3 307.1a.8.8 0 00-1.5.5.8.8 0 001.5-.5zM84 314.9a.8.8 0 101 .4.8.8 0 00-1-.4zM120 357a.8.8 0 00-.5 1 .8.8 0 001 .5.8.8 0 00-.4-1.5zM117.9 464.8a.8.8 0 00-.7-.9.8.8 0 00-.9.6.8.8 0 101.6.3zM51 220.5a.8.8 0 00-.8-.8.8.8 0 00-.8.7.8.8 0 00.8.8.8.8 0 00.8-.7zM44.5 201.4a.8.8 0 10-.8.8.8.8 0 00.8-.8zM32 213.2a.8.8 0 00-1.6 0 .8.8 0 00.8.8.8.8 0 00.8-.8zM27.1 229.5a.8.8 0 10-1.5 0 .8.8 0 001.5 0zM65.4 221.3a.8.8 0 00-.8-.9.8.8 0 00-.8.8.8.8 0 001.6 0zM39 266a.8.8 0 00-.8-.8.8.8 0 00-.8.8.8.8 0 00.8.7.8.8 0 00.8-.7zM63.8 259a.8.8 0 00-.6-.8.8.8 0 00-.3 1.5.8.8 0 00.9-.6zM50.2 243.4a.8.8 0 10-1.6 0 .8.8 0 00.8.8.8.8 0 00.8-.8zM44.5 271.3a.8.8 0 00-.8-.8.8.8 0 100 1.5.8.8 0 00.8-.7zM78.2 236.1a.8.8 0 10-.8.8.8.8 0 00.8-.8zM49.4 254a.8.8 0 00-.8-.8.8.8 0 00-.8.8.8.8 0 101.6 0z"/><circle cx="88" cy="465.6" r="1.6"/><path d="M44.2 492.4a1.6 1.6 0 101.5 1.6 1.6 1.6 0 00-1.5-1.6zM57 448.6a.8.8 0 10-.6-1 .8.8 0 00.6 1zM53.1 459.5a.8.8 0 10.4-1.5.8.8 0 00-1 .6.8.8 0 00.6.9zM47.8 446.2a.8.8 0 10-.6-1 .8.8 0 00.6 1zM52.3 480.7a1.6 1.6 0 101.6 1.6 1.6 1.6 0 00-1.6-1.6z"/><circle cx="164.8" cy="358.8" r="2.9"/><circle cx="117.4" cy="234.6" r="1.6"/><path d="M118.6 444a.8.8 0 10-.5 1 .8.8 0 00.5-1zM116 453.7a.8.8 0 10-.5 1 .8.8 0 00.6-1zM103.2 445.8a.8.8 0 10-1 .2.8.8 0 001-.2zM77 431a.8.8 0 00-.6 1 .8.8 0 101.5-.4.8.8 0 00-.9-.6zM112.7 428.5a.8.8 0 101 .6.8.8 0 00-1-.6zM122.9 412.6a.8.8 0 00-.8-.8.8.8 0 00-.8.7.8.8 0 00.8.8.8.8 0 00.8-.7zM93.9 231a.8.8 0 10-.8.8.8.8 0 00.8-.7zM106.1 226.8a.8.8 0 10-1.5 0 .8.8 0 00.7.8.8.8 0 00.8-.8zM97.9 222.3a.8.8 0 10-.8.8.8.8 0 00.8-.8zM959.9 137.7a.8.8 0 10-1-.5.8.8 0 001 .5zM967.7 142.7a.8.8 0 10-.6 1 .8.8 0 00.6-1z"/><circle cx="1115.4" cy="155.6" r="1.6"/><path d="M1138.8 236.3a.8.8 0 00.7.8.8.8 0 10-.7-.8zM1150.7 228.4a.8.8 0 101.5 0 .8.8 0 00-.7-.8.8.8 0 00-.8.8zM1126 217.3a.8.8 0 10.8-.6.8.8 0 00-.9.6zM1138.8 204a.8.8 0 10.8-.8.8.8 0 00-.8.8zM1130.7 226.4a.8.8 0 10.8-.8.8.8 0 00-.8.8zM1145.2 223.1a.8.8 0 00.8.8.8.8 0 00.8-.7.8.8 0 00-1.6 0zM1157.7 211.3a.8.8 0 00.8.8.8.8 0 00.8-.8.8.8 0 00-.8-.8.8.8 0 00-.8.8zM1135.3 265a.8.8 0 00.6.8.8.8 0 001-.6.8.8 0 00-1.6-.3zM1118.5 241.1a.8.8 0 00.8.8.8.8 0 10-.8-.8zM1097.4 312.8a.8.8 0 001.6 0 .8.8 0 10-1.6 0zM1086 311.3a.8.8 0 00.8.7.8.8 0 00.8-.7.8.8 0 00-.8-.8.8.8 0 00-.8.8zM1098 303.4a.8.8 0 101.5 0 .8.8 0 10-1.6 0zM1121.7 310a.8.8 0 101.5.3.8.8 0 00-.6-.9.8.8 0 00-.9.7zM1105 286.2a.8.8 0 10.7-.7.8.8 0 00-.8.7zM1092.8 177.2a.8.8 0 101-.2.8.8 0 00-1 .2zM1092 160.6a.8.8 0 001 1.2.8.8 0 00-1-1.2zM1089.3 429.4a.8.8 0 00.9 1.3.8.8 0 00.2-1.1.8.8 0 00-1-.2zM1092 292a.8.8 0 101 .3.8.8 0 00-1-.2zM1124.3 203.3a.8.8 0 101.6 0 .8.8 0 00-1.6 0zM1172 173.7a.8.8 0 101.6 0 .8.8 0 10-1.6 0zM1183.9 165.8a.8.8 0 10.8-.8.8.8 0 00-.8.8zM1159.1 152.9a.8.8 0 00.6.9.8.8 0 001-.6.8.8 0 00-1.6-.3zM1163.9 163.8a.8.8 0 00.8.8.8.8 0 00.8-.8.8.8 0 00-.8-.8.8.8 0 00-.8.8zM1178.4 160.5a.8.8 0 00.8.8.8.8 0 00.8-.8.8.8 0 00-.8-.8.8.8 0 00-.8.8zM1139.5 181a.8.8 0 00.8.9.8.8 0 00.8-.8.8.8 0 00-1.6 0zM1141.2 163.9a.8.8 0 10.5-1 .8.8 0 00-.5 1zM1087.8 248.9a.8.8 0 101.5-.5.8.8 0 00-1.5.5zM1131.1 281.2a1.6 1.6 0 10-1.5-1.6 1.6 1.6 0 001.5 1.6z"/><circle cx="1121.7" cy="256.6" r="2.9"/><circle cx="1117" cy="126.3" r="1.6"/><path d="M1160.8 194.9a.8.8 0 10-1-.5.8.8 0 001 .5zM1084.4 302.8a.8.8 0 10-.3-1.5.8.8 0 10.3 1.5zM1091.8 309a.8.8 0 10-.9-.6.8.8 0 001 .6z"/><circle cx="1097.3" cy="275.5" r="1.6"/><path d="M1092.9 256.6a.8.8 0 00.8.8.8.8 0 00.8-.8.8.8 0 00-.8-.8.8.8 0 00-.8.8zM1155 181a.8.8 0 00.8.9.8.8 0 00.8-.8.8.8 0 00-.8-.8.8.8 0 00-.8.8zM1074.4 254.2a.8.8 0 10.8-.8.8.8 0 00-.8.8zM1152.2 166.3a.8.8 0 10-1-.5.8.8 0 001 .4zM1150 157a.8.8 0 00.6-1 .8.8 0 00-1-.5.8.8 0 00.4 1.5zM1152.3 176.8a.8.8 0 10-1-.6.8.8 0 001 .6zM1147 183a.8.8 0 00.6-1 .8.8 0 00-1-.5.8.8 0 10.4 1.5zM1160.5 171.5a.8.8 0 00.7.8.8.8 0 100-1.6.8.8 0 00-.8.8zM1138.4 133.8a.8.8 0 00-.3-1.5.8.8 0 10.3 1.5zM1098.7 254.5a.8.8 0 101.6 0 .8.8 0 10-1.6 0zM1088.6 275.7a.8.8 0 101.5-.4.8.8 0 00-1.5.4zM1083.5 283.5a.8.8 0 00.6-1 .8.8 0 00-1.5.4.8.8 0 001 .6zM959.6 437.8a.8.8 0 101 .5.8.8 0 00-1-.5zM945.6 457.5a.8.8 0 101 .5.8.8 0 00-1-.5zM969.3 440.3a.8.8 0 101 .5.8.8 0 00-1-.5zM1167.6 491.6a.8.8 0 000 1.5.8.8 0 00.8-.8.8.8 0 00-.8-.8zM1175.5 503.5a.8.8 0 00-.8.7.8.8 0 00.8.8.8.8 0 00.8-.7.8.8 0 00-.8-.8zM1177.6 483.5a.8.8 0 00-.8.8.8.8 0 00.7.8.8.8 0 000-1.6zM1180.8 498a.8.8 0 100 1.6.8.8 0 000-1.6zM1139 488a.8.8 0 00-1 .7.8.8 0 101-.6zM1162.8 471.3a.8.8 0 00-.8.8.8.8 0 00.8.8.8.8 0 000-1.6zM1091.1 450.2a.8.8 0 10.8.8.8.8 0 00-.8-.8zM1092.7 438.8a.8.8 0 00-.8.7.8.8 0 00.8.8.8.8 0 00.8-.7.8.8 0 00-.8-.8zM1100.6 450.7a.8.8 0 00-.8.8.8.8 0 101.6 0 .8.8 0 00-.8-.8zM1093.9 474.5a.8.8 0 00-1 .6.8.8 0 001.6.3.8.8 0 00-.6-.9zM1117.7 457.7a.8.8 0 00-.8.8.8.8 0 00.8.8.8.8 0 100-1.6zM997.4 390.3a.8.8 0 00-1 1.3.8.8 0 001.2-.2.8.8 0 00-.2-1zM992.6 412.3a.8.8 0 00-1.1.2.8.8 0 101-.2zM1009.5 426.3a.8.8 0 00-.6-1 .8.8 0 10.6 1zM996.2 431.6a.8.8 0 10-1.5-.3.8.8 0 001.5.3zM1067 345a.8.8 0 10-1 .6.8.8 0 001-.6zM936 449.6a.8.8 0 10-1 .4.8.8 0 001-.4zM933 439.7a.8.8 0 10-.9.6.8.8 0 001-.6zM932.3 423.3a.8.8 0 10-1 .6.8.8 0 001-.6zM948 427.8a.8.8 0 10-1 .5.8.8 0 001-.5zM1067.6 407.3a.8.8 0 00-1-.2.8.8 0 00-.2 1 .8.8 0 001 .3.8.8 0 00.2-1.1zM1068.3 417.3a.8.8 0 10-.2 1.1.8.8 0 00.2-1zM1068.4 375.3a.8.8 0 10-.2 1 .8.8 0 00.2-1zM1078.1 411.4a.8.8 0 10-.2 1.1.8.8 0 00.2-1zM1111.9 444.7a.8.8 0 10-.2 1 .8.8 0 00.2-1zM1067.2 442.8a.8.8 0 10-.2 1 .8.8 0 00.2-1zM1155 440.6a.8.8 0 101 .5.8.8 0 00-1-.5zM1122.8 484a1.6 1.6 0 101.5-1.6 1.6 1.6 0 00-1.5 1.5z"/><circle cx="1147.4" cy="474.5" r="2.9"/><circle cx="951" cy="477.7" r="1.6"/><path d="M1101.2 437.2a.8.8 0 00.9.6.8.8 0 00-.4-1.5.8.8 0 00-.5 1zM1095 444.6a.8.8 0 00.8.6.8.8 0 10-.3-1.5.8.8 0 00-.6 1z"/><circle cx="1128.5" cy="450.1" r="1.6"/><path d="M1147.4 445.7a.8.8 0 00-.8.8.8.8 0 101.5 0 .8.8 0 00-.7-.8zM1149.8 427.2a.8.8 0 10.7.8.8.8 0 00-.7-.8zM1149.5 451.5a.8.8 0 00-.8.8.8.8 0 00.7.7.8.8 0 00.8-.7.8.8 0 00-.7-.8zM956 485.6a.8.8 0 00.9.5.8.8 0 00.5-.9.8.8 0 00-1.5.4zM1128.3 441.4a.8.8 0 101 .5.8.8 0 00-1-.5zM1120.4 436.3a.8.8 0 001 .6.8.8 0 00.6-1 .8.8 0 00-1.6.4z"/><circle cx="1009.1" cy="356.3" r="1.6"/><path d="M985.8 275.6a.8.8 0 10-.8.8.8.8 0 00.8-.8zM973.9 283.5a.8.8 0 10-.8.8.8.8 0 00.8-.8zM998.7 294.6a.8.8 0 10-1 .7.8.8 0 001-.7zM985.8 307.9a.8.8 0 10-1.5 0 .8.8 0 001.5 0zM993.9 285.6a.8.8 0 00-.8-.9.8.8 0 10.8.9zM979.4 288.8a.8.8 0 00-.8-.8.8.8 0 00-.8.8.8.8 0 00.8.8.8.8 0 00.8-.8zM966.9 300.7a.8.8 0 10-1.6 0 .8.8 0 00.8.7.8.8 0 00.8-.7zM989.3 247a.8.8 0 00-.6-.9.8.8 0 00-.3 1.5.8.8 0 00.9-.6zM1006 270.8a.8.8 0 00-.7-.8.8.8 0 00-.8.8.8.8 0 00.8.8.8.8 0 00.8-.8zM1027.2 199.1a.8.8 0 00-.8-.8.8.8 0 00-.8.8.8.8 0 00.8.8.8.8 0 00.8-.8zM1038.6 200.7a.8.8 0 10-1.6 0 .8.8 0 00.8.8.8.8 0 00.8-.8zM1026.7 208.6a.8.8 0 00-.8-.8.8.8 0 00-.8.7.8.8 0 00.8.8.8.8 0 00.8-.7zM1002.9 201.9a.8.8 0 00-1.6-.3.8.8 0 101.6.3zM1019.7 225.7a.8.8 0 00-.8-.8.8.8 0 00-.8.8.8.8 0 101.6 0zM1031.8 334.7a.8.8 0 00-1.3-.9.8.8 0 00.2 1.1.8.8 0 001-.2zM1032.5 351.3a.8.8 0 000-1.1.8.8 0 00-1 0 .8.8 0 000 1 .8.8 0 001 0zM1032.7 219.9a.8.8 0 00.2-1.1.8.8 0 10-1.3.9.8.8 0 001 .2zM1000.2 308.7a.8.8 0 10-.8.7.8.8 0 00.8-.7zM952.6 338.2a.8.8 0 10-.8.8.8.8 0 00.8-.8zM940.7 346.1a.8.8 0 00-.8-.8.8.8 0 00-.7.8.8.8 0 001.5 0zM965.5 359a.8.8 0 00-.6-.9.8.8 0 00-.3 1.5.8.8 0 00.9-.6zM960.7 348.2a.8.8 0 10-1.6 0 .8.8 0 001.6 0zM946.2 351.4a.8.8 0 10-.8.8.8.8 0 00.8-.8zM985 330.9a.8.8 0 10-.8.7.8.8 0 00.8-.7zM983.4 348a.8.8 0 00-1-.5.8.8 0 101 .6zM1036.8 263a.8.8 0 10-1.5.5.8.8 0 001 .5.8.8 0 00.5-1zM993.5 230.7a1.6 1.6 0 101.5 1.6 1.6 1.6 0 00-1.5-1.6z"/><circle cx="1002.9" cy="255.4" r="2.9"/><circle cx="1007.6" cy="385.7" r="1.6"/><path d="M963.8 317a.8.8 0 00-.4 1 .8.8 0 001 .5.8.8 0 00-.6-1.5zM1040.2 209.1a.8.8 0 00.3 1.6.8.8 0 10-.3-1.6zM1032.8 202.9a.8.8 0 10.3 1.5.8.8 0 00.6-1 .8.8 0 00-1-.5z"/><circle cx="1027.3" cy="236.5" r="1.6"/><path d="M1031.7 255.4a.8.8 0 10-.8.7.8.8 0 00.8-.7zM969.5 330.9a.8.8 0 10-.8.7.8.8 0 00.8-.7zM1050.2 257.8a.8.8 0 00-.8-.9.8.8 0 00-.8.8.8.8 0 001.6 0zM972.4 345.7a.8.8 0 00-.4 1 .8.8 0 001 .4.8.8 0 10-.6-1.4zM974.6 355a.8.8 0 10.4 1.5.8.8 0 00-.4-1.6zM972.3 335.2a.8.8 0 10.9.5.8.8 0 00-1-.5zM977.6 329a.8.8 0 00-.6 1 .8.8 0 001 .5.8.8 0 00.5-1 .8.8 0 00-1-.5zM964.1 340.4a.8.8 0 00-.7-.7.8.8 0 00-.8.7.8.8 0 001.5 0zM986.2 378.1a.8.8 0 10.3 1.5.8.8 0 10-.3-1.5zM1025.9 257.5a.8.8 0 10-.8.7.8.8 0 00.8-.7zM1036 236.3a.8.8 0 00-1-.6.8.8 0 101 .6zM1041 228.4a.8.8 0 101 .6.8.8 0 00-1-.6z"/></g><circle cx="73" cy="313.6" r="31.1" fill="#335c64" stroke="#f2ead3" stroke-miterlimit="10" stroke-width=".5"/><circle cx="238" cy="375" r="23.8" fill="#fadb86" stroke="#f2ead3" stroke-miterlimit="10" stroke-width=".5"/><circle cx="206.1" cy="232.3" r="14.8" fill="#5d8f76" stroke="#f2ead3" stroke-miterlimit="10" stroke-width=".5"/><circle cx="924.6" cy="238" r="23.8" fill="#a5c986" stroke="#f2ead3" stroke-miterlimit="10" stroke-width=".5"/><circle cx="66.5" cy="152.2" r="23.8" fill="#adc6b9" stroke="#f2ead3" stroke-miterlimit="10" stroke-width=".5"/><circle cx="1157" cy="289" r="21.1" fill="#67a3c1" stroke="#f2ead3" stroke-miterlimit="10" stroke-width=".5"/><circle cx="1117.8" cy="132.7" r="35.2" fill="#27689e" stroke="#f2ead3" stroke-miterlimit="10" stroke-width=".5"/><circle cx="161.9" cy="47.4" r="17.8" fill="#c73f69" stroke="#f2ead3" stroke-miterlimit="10" stroke-width=".5"/><circle cx="1017.8" cy="417" r="37.3" fill="#7895a4" stroke="#f2ead3" stroke-miterlimit="10" stroke-width=".5"/><path fill="none" stroke="#f2ead3" stroke-miterlimit="10" stroke-width=".5" d="M1051.2 433.6c10.3 8.6 16.2 15.1 15 17-2.2 3.2-25.5-8.9-52-27s-46.3-35.5-44-38.7c1.2-1.8 8.9 1 20 7.1"/></g></svg>