<svg xmlns="http://www.w3.org/2000/svg" viewBox="0 0 1198.04 617.14"><g style="isolation:isolate"><g><g><path d="M1198,0c-2.22,132.4.13,499.3,0,499.74-6.27,20.62-158.19,97.45-266.8,28-96.1-61.41-5-212.71-81.12-286.22-54.24-52.37-112.51-44.39-161.83-25.73C571.63,260,513,211.6,461.72,206.65,361.65,197,325.8,273,324.59,328.93c-5.66,260.49-164,282.69-225.33,277.91C19.77,600.64,0,547.59,0,547.59V0Z" fill="#001b38"/></g><path d="M555.65,163.17c.22,2.11.76,4.69,3,5.51,1.79.65,3.74-.07,5.4-.76,5.31-2.23,10.5-4.84,15.7-7.33q17.13-8.21,34-16.92c9-4.61,17.88-9.28,26.59-14.32,1.41-.82,2.81-1.64,4.19-2.5,1.64-1,3.84-2.36,4.33-4.39.56-2.33-1.82-3.66-3.65-4.33-3.63-1.34-7.46-2.28-11.16-3.38-16.07-4.79-32.21-9.34-48.51-13.28l.49,1.84c4.72-5.55,9.08-11.38,13.42-17.23,2.15-2.91,4.31-5.82,6.53-8.69,1.07-1.39,2.22-2.75,3.25-4.18a7,7,0,0,0,1.33-2.61c.48-2.29-1.59-3.47-3.49-4-3.23-.93-6.66-1.4-10-2.06q-10.74-2.14-21.51-4.11c-8.35-1.51-16.71-2.93-25.11-4.16-.64-.1-1.45.27-1.39,1.06.38,5.24.7,10.49,1,15.73q.81,13,1.61,26l1.77,28.81L555,151.62c.23,3.77.26,7.63.69,11.39a.86.86,0,0,1,0,.16c.09,1.41,2.29,1.42,2.21,0l-.57-9.3q-.67-11.33-1.37-22.66-.87-14.31-1.75-28.61-.82-13.36-1.66-26.72c-.37-5.81-.72-11.63-1.13-17.44,0-.38,0-.75-.08-1.13l-1.39,1.06c13.85,2,27.64,4.55,41.38,7.24q5,1,9.91,2c1.51.3,3,.58,4.54.93.69.16,2.3.4,2.64,1.17.23.55-.28,1.25-.56,1.71-.88,1.38-2,2.62-3,3.91-2.11,2.72-4.18,5.48-6.24,8.24-4.57,6.17-9.14,12.35-14.12,18.2a1.11,1.11,0,0,0,.48,1.84c13.53,3.27,26.95,7,40.31,10.86q5,1.47,10,3l5.15,1.55a26.25,26.25,0,0,1,5.24,1.76c.52.3,1.15.66,1,1.33-.23.88-1.43,1.67-2.12,2.15-1.28.89-2.64,1.66-4,2.45-7.74,4.55-15.7,8.74-23.66,12.89q-15.45,8.05-31.13,15.69-8.71,4.24-17.52,8.35a42.38,42.38,0,0,1-6.94,3,2.79,2.79,0,0,1-2.25-.11c-1-.66-1.12-2.24-1.22-3.28C557.71,161.77,555.51,161.76,555.65,163.17Z" fill="#fadb86"/><path d="M565.9,157.77c18.26-9.24,36.8-18,55.46-26.39l6.79-3L631,127.1c1-.45,2.35-1,2.76-2.15.84-2.33-2.54-3.39-4.12-3.85-3.1-.9-6.23-1.71-9.34-2.57-13.5-3.71-27-7.42-40.48-11.25-1-.29-3.87-.53-4-1.92-.13-1.21,1-2.54,1.59-3.47,2-3,4.06-5.91,6.19-8.79,4.66-6.32,9.53-12.5,14.14-18.86.55-.77-.23-1.57-1-1.66-12.23-1.61-24.37-3.82-36.58-5.5-.66-.09-1.45.26-1.4,1.06l.54,8.78,1.31,21.22,1.57,25.57,1.36,22.21c.22,3.56.25,7.2.66,10.75a.76.76,0,0,1,0,.15c.09,1.41,2.29,1.42,2.2,0L565.9,148l-1.3-21.22L563,101.26l-1.36-22.21-.45-7.29a19.15,19.15,0,0,0-.21-3.47.37.37,0,0,1,0-.15l-1.4,1.06c12.41,1.71,24.74,4,37.17,5.58l-1-1.66c-4.07,5.63-8.34,11.11-12.5,16.67q-3,4-5.83,8c-1.36,2-3.35,4.18-3.8,6.6-.48,2.64,1.42,3.79,3.65,4.43l10.45,2.95q10,2.81,20,5.56l19.54,5.37a13.64,13.64,0,0,1,4,1.35c.12.08.38.42.38.21s-.18.08-.22.11a8.5,8.5,0,0,1-2,1q-3.19,1.4-6.38,2.82c-9.92,4.43-19.76,9-29.57,13.67-9.62,4.57-19.24,9.19-28.74,14C563.52,156.51,564.64,158.41,565.9,157.77Z" fill="#7895a4"/><circle cx="348.52" cy="105.26" r="49.45" fill="#f09d74" stroke="#f2ead3" stroke-miterlimit="10" stroke-width="0.5"/><path d="M386.15,73.17C402,65.1,413,61.24,414.61,63.75c2.8,4.39-24.08,26.53-60,49.45s-67.37,38-70.17,33.57c-1.55-2.43,6-10.32,19.21-20.78" fill="none" stroke="#f2ead3" stroke-miterlimit="10" stroke-width="0.5"/><circle cx="80" cy="480.64" r="37.52" fill="#d25b46" stroke="#f2ead3" stroke-miterlimit="10" stroke-width="0.55"/><path d="M117.44,478.28c13.31,2.32,21.74,5,21.57,7.24-.3,3.93-26.69,5.14-58.95,2.69s-58.16-7.62-57.87-11.55c.17-2.18,8.36-3.53,21.12-3.87" fill="none" stroke="#f2ead3" stroke-miterlimit="10" stroke-width="0.55"/><path d="M116.62,490.38c11.85,6.49,19,11.74,18.08,13.81-1.55,3.63-26.92-3.75-56.66-16.47s-52.59-26-51-29.62c.86-2,9-.64,21.23,3.15" fill="none" stroke="#f2ead3" stroke-miterlimit="10" stroke-width="0.55"/><circle cx="852.73" cy="73.67" r="33.54" fill="#992676" stroke="#f2ead3" stroke-miterlimit="10" stroke-width="0.5"/><path d="M884.09,85.55c10,6.79,15.87,12.07,14.9,13.84-1.69,3.1-23.63-5.65-49-19.53s-44.57-27.64-42.88-30.73c.94-1.72,8.1.2,18.62,4.62" fill="none" stroke="#f2ead3" stroke-miterlimit="10" stroke-width="0.5"/><path d="M884.52,84.35c11.44,7.78,22.11,17.41,21,19.44-1.94,3.54-27.07-6.47-56.14-22.37s-51.06-31.67-49.12-35.21c1.08-2,12.53-.13,26.24,6.54" fill="none" stroke="#f2ead3" stroke-miterlimit="10" stroke-width="0.5"/><g id="starsy"><circle cx="839.82" cy="110.81" r="1.56" fill="#f8f3dc"/><path d="M738.7,164.41a.78.78,0,0,0-1.56,0,.78.78,0,0,0,1.56,0Z" fill="#f8f3dc"/><circle cx="519.42" cy="129.57" r="0.78" fill="#f8f3dc"/><circle cx="732.73" cy="173.04" r="0.78" fill="#f8f3dc"/><circle cx="13.32" cy="50.27" r="0.78" fill="#f8f3dc"/><path d="M46.39,24.74a.78.78,0,0,0-.66-.88.76.76,0,0,0-.88.65.78.78,0,1,0,1.54.23Z" fill="#f8f3dc"/><path d="M33.94,38.38a.78.78,0,0,0-.78-.78.77.77,0,0,0-.77.78.76.76,0,0,0,.77.77A.77.77,0,0,0,33.94,38.38Z" fill="#f8f3dc"/><circle cx="744.15" cy="173.82" r="0.78" fill="#f8f3dc"/><circle cx="26.16" cy="19.5" r="0.78" fill="#f8f3dc"/><path d="M1165,74.18a.78.78,0,0,0,.53-1,.78.78,0,0,0-1.49.44A.78.78,0,0,0,1165,74.18Z" fill="#f8f3dc"/><path d="M1179,54.42a.78.78,0,1,0-1-.53A.78.78,0,0,0,1179,54.42Z" fill="#f8f3dc"/><path d="M1155.27,71.62a.78.78,0,1,0-1-.53A.78.78,0,0,0,1155.27,71.62Z" fill="#f8f3dc"/><path d="M755.73,150.54a.78.78,0,1,0-1-.53A.79.79,0,0,0,755.73,150.54Z" fill="#f8f3dc"/><path d="M427.93,115.53a.78.78,0,0,0,.8-.76.77.77,0,0,0-.75-.8.78.78,0,0,0-.05,1.56Z" fill="#f8f3dc"/><path d="M920.52,87.5a.78.78,0,1,0-.76-.8A.79.79,0,0,0,920.52,87.5Z" fill="#f8f3dc"/><path d="M912.61,75.57a.78.78,0,0,0,.8-.76.77.77,0,0,0-.75-.8.78.78,0,0,0,0,1.56Z" fill="#f8f3dc"/><path d="M901.51,100.34a.79.79,0,0,0,.91-.63.78.78,0,0,0-.63-.9.77.77,0,0,0-.9.62A.78.78,0,0,0,901.51,100.34Z" fill="#f8f3dc"/><path d="M888.25,87.5a.78.78,0,1,0-.75-.8A.77.77,0,0,0,888.25,87.5Z" fill="#f8f3dc"/><path d="M910.59,95.55a.78.78,0,1,0-.75-.8A.77.77,0,0,0,910.59,95.55Z" fill="#f8f3dc"/><path d="M907.32,81.05a.78.78,0,1,0-.75-.8A.77.77,0,0,0,907.32,81.05Z" fill="#f8f3dc"/><path d="M895.49,68.56a.78.78,0,1,0-.75-.8A.77.77,0,0,0,895.49,68.56Z" fill="#f8f3dc"/><path d="M229.76,106.52a.78.78,0,0,0,.8-.76.77.77,0,0,0-.75-.8.78.78,0,0,0-.8.76A.77.77,0,0,0,229.76,106.52Z" fill="#f8f3dc"/><path d="M228.21,118a.77.77,0,0,0,.8-.75.78.78,0,0,0-.76-.8.77.77,0,0,0-.8.75A.78.78,0,0,0,228.21,118Z" fill="#f8f3dc"/><path d="M220.3,106a.78.78,0,1,0-.75-.8A.77.77,0,0,0,220.3,106Z" fill="#f8f3dc"/><path d="M949.14,91a.8.8,0,0,0,.91-.63.78.78,0,0,0-1.54-.28A.79.79,0,0,0,949.14,91Z" fill="#f8f3dc"/><path d="M195.94,118a.78.78,0,1,0-.75-.8A.77.77,0,0,0,195.94,118Z" fill="#f8f3dc"/><path d="M171.8,112.3a.78.78,0,1,0-.75-.8A.77.77,0,0,0,171.8,112.3Z" fill="#f8f3dc"/><path d="M925.31,107.75a.78.78,0,1,0-.75-.8A.77.77,0,0,0,925.31,107.75Z" fill="#f8f3dc"/><path d="M695.09,96.55a.77.77,0,0,0,.8-.75.78.78,0,1,0-.8.75Z" fill="#f8f3dc"/><path d="M693.53,108a.78.78,0,0,0,.8-.76.77.77,0,0,0-.75-.8.78.78,0,0,0-.05,1.56Z" fill="#f8f3dc"/><path d="M685.63,96.07a.77.77,0,0,0,.8-.75.78.78,0,0,0-.76-.8.77.77,0,0,0-.8.75A.78.78,0,0,0,685.63,96.07Z" fill="#f8f3dc"/><path d="M94.38,89a.78.78,0,1,0-.76-.8A.78.78,0,0,0,94.38,89Z" fill="#f8f3dc"/><path d="M75.37,101.83a.79.79,0,0,0,.91-.63.78.78,0,1,0-.91.63Z" fill="#f8f3dc"/><path d="M84.46,97a.78.78,0,1,0,0-1.55.77.77,0,0,0-.8.75A.78.78,0,0,0,84.46,97Z" fill="#f8f3dc"/><path d="M72.19,78.05a.8.8,0,0,0,.81-.76.78.78,0,1,0-.81.76Z" fill="#f8f3dc"/><path d="M997,128.82a.78.78,0,1,0-.76-.8A.78.78,0,0,0,997,128.82Z" fill="#f8f3dc"/><path d="M995.46,140.27a.78.78,0,0,0,.8-.75.78.78,0,1,0-1.55-.05A.77.77,0,0,0,995.46,140.27Z" fill="#f8f3dc"/><path d="M987.56,128.34a.78.78,0,1,0-.76-.8A.78.78,0,0,0,987.56,128.34Z" fill="#f8f3dc"/><path d="M994.26,104.54a.78.78,0,1,0,.28-1.53.77.77,0,0,0-.9.62A.78.78,0,0,0,994.26,104.54Z" fill="#f8f3dc"/><path d="M970.43,121.33a.78.78,0,1,0,.05-1.55.77.77,0,0,0-.8.75A.78.78,0,0,0,970.43,121.33Z" fill="#f8f3dc"/><path d="M1127.2,121.62a.78.78,0,0,0,1.09-.19.78.78,0,1,0-1.09.19Z" fill="#f8f3dc"/><circle cx="659.15" cy="197.79" r="0.78" fill="#f8f3dc"/><path d="M382.74,143.9a.79.79,0,0,0,1.09-.2.78.78,0,0,0-1.28-.89A.78.78,0,0,0,382.74,143.9Z" fill="#f8f3dc"/><path d="M1132,99.67a.77.77,0,0,0,1.08-.19.78.78,0,0,0-.19-1.09.77.77,0,0,0-1.08.2A.76.76,0,0,0,1132,99.67Z" fill="#f8f3dc"/><path d="M379.51,125.17a.78.78,0,1,0,1.12-1.08.78.78,0,1,0-1.12,1.08Z" fill="#f8f3dc"/><path d="M386.16,157.38a.77.77,0,0,0-.77-.78.78.78,0,1,0,0,1.56A.77.77,0,0,0,386.16,157.38Z" fill="#f8f3dc"/><path d="M387.74,132.85a.78.78,0,1,0-.19-1.08A.78.78,0,0,0,387.74,132.85Z" fill="#f8f3dc"/><path d="M659.08,208.3a.78.78,0,1,0-.19-1.08A.76.76,0,0,0,659.08,208.3Z" fill="#f8f3dc"/><path d="M861.44,133.45a.79.79,0,0,0,1.09-.19.79.79,0,0,0-.2-1.09.77.77,0,0,0-1.08.19A.78.78,0,0,0,861.44,133.45Z" fill="#f8f3dc"/><path d="M844.85,134.21a.78.78,0,0,0,1.1,0,.78.78,0,1,0-1.1,0Z" fill="#f8f3dc"/><path d="M228.87,61.94a.78.78,0,0,0-1.56,0,.78.78,0,0,0,1.56,0Z" fill="#f8f3dc"/><path d="M220.4,91.47a.78.78,0,0,0,1.12-1.08.78.78,0,1,0-1.12,1.08Z" fill="#f8f3dc"/><path d="M227.65,77.94a.78.78,0,0,0,.89-1.28.79.79,0,0,0-1.09.19A.79.79,0,0,0,227.65,77.94Z" fill="#f8f3dc"/><path d="M673,147.06a.78.78,0,0,0,.89-1.28.79.79,0,0,0-1.09.19A.79.79,0,0,0,673,147.06Z" fill="#f8f3dc"/><path d="M742.42,117a.78.78,0,0,0-.78-.78.78.78,0,0,0,0,1.56A.78.78,0,0,0,742.42,117Z" fill="#f8f3dc"/><path d="M745.09,128.78a.77.77,0,0,0,1.08-.19.78.78,0,1,0-1.08.19Z" fill="#f8f3dc"/><path d="M733.51,109.23a.78.78,0,1,0,.93-.58A.78.78,0,0,0,733.51,109.23Z" fill="#f8f3dc"/><path d="M729.2,102.94a.78.78,0,1,0,.93-.58A.77.77,0,0,0,729.2,102.94Z" fill="#f8f3dc"/><path d="M1115.09,85.64a.78.78,0,1,0,.94-.58A.78.78,0,0,0,1115.09,85.64Z" fill="#f8f3dc"/><path d="M1128.37,80.29a.78.78,0,1,0,.94-.58A.78.78,0,0,0,1128.37,80.29Z" fill="#f8f3dc"/><path d="M643.64,207.19a.78.78,0,1,0,.93-.58A.78.78,0,0,0,643.64,207.19Z" fill="#f8f3dc"/><path d="M294.08,151.14a1.32,1.32,0,0,0-2.29,1.32,1.32,1.32,0,0,0,2.29-1.32Z" fill="#f8f3dc"/><path d="M282.45,137.71a1.32,1.32,0,1,0,.88-1.64A1.32,1.32,0,0,0,282.45,137.71Z" fill="#f8f3dc"/><path d="M282.45,124.43a1.32,1.32,0,1,0,.88-1.64A1.32,1.32,0,0,0,282.45,124.43Z" fill="#f8f3dc"/><path d="M300.36,127.23a1.32,1.32,0,1,0,.88-1.64A1.31,1.31,0,0,0,300.36,127.23Z" fill="#f8f3dc"/><path d="M306.86,143.84a1.32,1.32,0,1,0,.88-1.64A1.32,1.32,0,0,0,306.86,143.84Z" fill="#f8f3dc"/><circle cx="370.53" cy="103.96" r="0.78" fill="#f8f3dc"/><path d="M362.84,133.5a.78.78,0,0,0,1.1,0,.78.78,0,1,0-1.09-1.11A.78.78,0,0,0,362.84,133.5Z" fill="#f8f3dc"/><path d="M341,132.81a.77.77,0,0,0,1.08-.19.76.76,0,0,0-.19-1.08.78.78,0,1,0-.89,1.27Z" fill="#f8f3dc"/><path d="M341.82,147.72a.78.78,0,0,0,.89-1.27.76.76,0,0,0-1.08.19A.77.77,0,0,0,341.82,147.72Z" fill="#f8f3dc"/><path d="M344.13,106.38a.8.8,0,0,0,.58.94.78.78,0,1,0-.58-.94Z" fill="#f8f3dc"/><path d="M616.94,193.49a.77.77,0,0,0,.58.93.78.78,0,1,0-.58-.93Z" fill="#f8f3dc"/><path d="M1057.65,167a.78.78,0,1,0,.93-.58A.77.77,0,0,0,1057.65,167Z" fill="#f8f3dc"/><path d="M65.71,89a.78.78,0,1,0,.93-.58A.77.77,0,0,0,65.71,89Z" fill="#f8f3dc"/><path d="M1188.67,62.34a.78.78,0,1,0,1-.43A.77.77,0,0,0,1188.67,62.34Z" fill="#f8f3dc"/><path d="M1191.53,72.2a.77.77,0,0,0,.58.93.78.78,0,1,0-.58-.93Z" fill="#f8f3dc"/><path d="M1192.31,88.6a.78.78,0,1,0,.94-.57A.78.78,0,0,0,1192.31,88.6Z" fill="#f8f3dc"/><path d="M323.68,115.55a.78.78,0,1,0,1.51.36.78.78,0,0,0-1.51-.36Z" fill="#f8f3dc"/><path d="M326.05,106.38a.78.78,0,1,0,.93-.58A.78.78,0,0,0,326.05,106.38Z" fill="#f8f3dc"/><path d="M348,117.74a.78.78,0,1,0,1-.44A.79.79,0,0,0,348,117.74Z" fill="#f8f3dc"/><path d="M1176.62,84.16a.78.78,0,1,0,1.52.36.77.77,0,0,0-.58-.93A.78.78,0,0,0,1176.62,84.16Z" fill="#f8f3dc"/><path d="M35,47.4a.78.78,0,1,0-1-.53A.78.78,0,0,0,35,47.4Z" fill="#f8f3dc"/><circle cx="323.56" cy="152.17" r="0.78" fill="#f8f3dc"/><path d="M54.38,72.75a.78.78,0,1,0,.94-.58A.78.78,0,0,0,54.38,72.75Z" fill="#f8f3dc"/><path d="M323.46,133.25a.78.78,0,0,0,.58.94.77.77,0,0,0,.93-.58.78.78,0,1,0-1.51-.36Z" fill="#f8f3dc"/><path d="M61.5,45.42a.77.77,0,0,0,.58.93.78.78,0,1,0-.58-.93Z" fill="#f8f3dc"/><path d="M54.72,41a.78.78,0,1,0,.93-.58A.78.78,0,0,0,54.72,41Z" fill="#f8f3dc"/><path d="M36.29,72.75a.78.78,0,0,0,.58.94.8.8,0,0,0,.94-.58.78.78,0,0,0-1.52-.36Z" fill="#f8f3dc"/><path d="M46.59,57.38a.78.78,0,1,0,.94-.58A.8.8,0,0,0,46.59,57.38Z" fill="#f8f3dc"/><path d="M1057,104.65a.78.78,0,1,0,.19-1.08A.77.77,0,0,0,1057,104.65Z" fill="#f8f3dc"/><path d="M1056.26,94.61a.78.78,0,0,0,1.09.19.78.78,0,1,0-1.09-.19Z" fill="#f8f3dc"/><path d="M464.19,86.33a.79.79,0,0,0,1.05.35.78.78,0,0,0-.7-1.4A.79.79,0,0,0,464.19,86.33Z" fill="#f8f3dc"/><path d="M1056.21,136.67a.77.77,0,0,0,1.08.19.76.76,0,0,0,.19-1.08.78.78,0,1,0-1.27.89Z" fill="#f8f3dc"/><path d="M1046.46,100.52a.79.79,0,0,0,1.09.19.78.78,0,1,0-1.09-.19Z" fill="#f8f3dc"/><path d="M976.29,134.34a.77.77,0,0,0,1.08.2.78.78,0,0,0,.19-1.09.77.77,0,0,0-1.08-.19A.76.76,0,0,0,976.29,134.34Z" fill="#f8f3dc"/><path d="M1057.39,69.13a.78.78,0,0,0,1.27-.89.76.76,0,0,0-1.08-.19A.77.77,0,0,0,1057.39,69.13Z" fill="#f8f3dc"/><path d="M472.17,127.65a.78.78,0,0,0,.13,1.09.78.78,0,0,0,1-1.21A.78.78,0,0,0,472.17,127.65Z" fill="#f8f3dc"/><path d="M459.15,124.16a.78.78,0,1,0,1.09-.12A.78.78,0,0,0,459.15,124.16Z" fill="#f8f3dc"/><path d="M493.76,133.9a.78.78,0,1,0,1.1-.12A.78.78,0,0,0,493.76,133.9Z" fill="#f8f3dc"/><path d="M249,82.15a.78.78,0,1,0-1.53-.29.79.79,0,0,0,.63.91A.77.77,0,0,0,249,82.15Z" fill="#f8f3dc"/><path d="M680.1,35.57a.78.78,0,1,0-.44-1.5.79.79,0,0,0-.53,1A.78.78,0,0,0,680.1,35.57Z" fill="#f8f3dc"/><path d="M714.13,55.57a.78.78,0,1,0-.75-.8A.77.77,0,0,0,714.13,55.57Z" fill="#f8f3dc"/><path d="M698,52.1a.77.77,0,0,0,.8-.75.78.78,0,1,0-.8.75Z" fill="#f8f3dc"/><path d="M289.88,53.94a.77.77,0,0,0,.8-.75.78.78,0,0,0-.76-.8.77.77,0,0,0-.8.75A.78.78,0,0,0,289.88,53.94Z" fill="#f8f3dc"/><path d="M576,8.57a.78.78,0,1,0-.76-.8A.79.79,0,0,0,576,8.57Z" fill="#f8f3dc"/><path d="M445.43,7.55a.78.78,0,0,0,.8-.76.77.77,0,0,0-.75-.8.78.78,0,0,0-.05,1.56Z" fill="#f8f3dc"/><path d="M688.87,52.27a.79.79,0,0,0-1-.44.78.78,0,1,0,.58,1.45A.77.77,0,0,0,688.87,52.27Z" fill="#f8f3dc"/><path d="M703.69,41.9a.78.78,0,1,0-.43,1A.77.77,0,0,0,703.69,41.9Z" fill="#f8f3dc"/><path d="M679.19,45.19a.78.78,0,0,0-.94-.58.77.77,0,0,0-.58.93.78.78,0,1,0,1.52-.35Z" fill="#f8f3dc"/><path d="M887.47,101.91a.78.78,0,0,0,.8-.76.77.77,0,0,0-.75-.8.78.78,0,0,0-.8.76A.77.77,0,0,0,887.47,101.91Z" fill="#f8f3dc"/><path d="M857.9,54.31a.78.78,0,0,0,.8-.76.77.77,0,0,0-.75-.8.78.78,0,0,0-.8.76A.77.77,0,0,0,857.9,54.31Z" fill="#f8f3dc"/><path d="M850,42.38a.78.78,0,1,0-.76-.81A.8.8,0,0,0,850,42.38Z" fill="#f8f3dc"/><path d="M837.1,67.15a.8.8,0,0,0,.91-.63.78.78,0,0,0-1.54-.28A.79.79,0,0,0,837.1,67.15Z" fill="#f8f3dc"/><path d="M288.68,88.37a.78.78,0,0,0,.8-.76.77.77,0,0,0-.75-.8.78.78,0,0,0-.05,1.56Z" fill="#f8f3dc"/><path d="M848,62.36a.78.78,0,1,0,0-1.55.78.78,0,1,0,0,1.55Z" fill="#f8f3dc"/><path d="M844.71,47.86a.77.77,0,0,0,.8-.75.78.78,0,0,0-.76-.8.77.77,0,0,0-.8.75A.78.78,0,0,0,844.71,47.86Z" fill="#f8f3dc"/><path d="M292.4,107.27a.78.78,0,1,0-.76-.8A.78.78,0,0,0,292.4,107.27Z" fill="#f8f3dc"/><path d="M127.52,91.62a.78.78,0,1,0,.28-1.53.78.78,0,0,0-.28,1.53Z" fill="#f8f3dc"/><path d="M865.29,86.72a.77.77,0,0,0,.8-.75.78.78,0,1,0-1.56,0A.78.78,0,0,0,865.29,86.72Z" fill="#f8f3dc"/><path d="M150.45,106a.79.79,0,0,0,.8-.75.8.8,0,0,0-.76-.81.78.78,0,1,0,0,1.56Z" fill="#f8f3dc"/><path d="M126.08,118a.78.78,0,1,0-.75-.8A.77.77,0,0,0,126.08,118Z" fill="#f8f3dc"/><path d="M315.67,130.61a.78.78,0,0,0,.05-1.55.78.78,0,1,0-.05,1.55Z" fill="#f8f3dc"/><path d="M123.56,72.73a.78.78,0,1,0,0-1.55.77.77,0,0,0-.8.75A.78.78,0,0,0,123.56,72.73Z" fill="#f8f3dc"/><path d="M544.61,22a.78.78,0,0,0,.8-.76.77.77,0,0,0-.75-.8.78.78,0,0,0-.8.76A.77.77,0,0,0,544.61,22Z" fill="#f8f3dc"/><path d="M526.85,27.47a.78.78,0,0,0,.8-.76.77.77,0,0,0-.75-.8.78.78,0,0,0-.8.76A.77.77,0,0,0,526.85,27.47Z" fill="#f8f3dc"/><path d="M508,73.94a.78.78,0,0,0,.91-.62.79.79,0,0,0-.63-.91.78.78,0,0,0-.9.63A.77.77,0,0,0,508,73.94Z" fill="#f8f3dc"/><path d="M760.13,100.16a.78.78,0,0,0,.53-1,.78.78,0,1,0-1.5.44A.77.77,0,0,0,760.13,100.16Z" fill="#f8f3dc"/><path d="M848.07,85.09a.78.78,0,1,0-1-.53A.78.78,0,0,0,848.07,85.09Z" fill="#f8f3dc"/><path d="M933.1,138.47a.78.78,0,1,0-1-.53A.78.78,0,0,0,933.1,138.47Z" fill="#f8f3dc"/><path d="M404.41,25.48a.78.78,0,1,0-1-.53A.78.78,0,0,0,404.41,25.48Z" fill="#f8f3dc"/><path d="M409.68,12.51a.78.78,0,1,0-1-.52A.78.78,0,0,0,409.68,12.51Z" fill="#f8f3dc"/><path d="M415.81,26.79a.78.78,0,1,0-1-.53A.78.78,0,0,0,415.81,26.79Z" fill="#f8f3dc"/><path d="M782.86,97.11a.79.79,0,0,0-1-.44.78.78,0,0,0,.58,1.45A.79.79,0,0,0,782.86,97.11Z" fill="#f8f3dc"/><path d="M408.06,72.37a.78.78,0,1,0-.44,1A.78.78,0,0,0,408.06,72.37Z" fill="#f8f3dc"/><path d="M365.94,108.51a.78.78,0,0,0-.94-.58.77.77,0,0,0-.58.93.78.78,0,1,0,1.52-.35Z" fill="#f8f3dc"/><path d="M258.15,106.33a.78.78,0,1,0-.63-.9A.77.77,0,0,0,258.15,106.33Z" fill="#f8f3dc"/><path d="M502.49,39.4a.78.78,0,0,0,.8-.76.78.78,0,1,0-1.56,0A.78.78,0,0,0,502.49,39.4Z" fill="#f8f3dc"/><path d="M521.56,33a.78.78,0,1,0,.05-1.55.78.78,0,1,0-.05,1.55Z" fill="#f8f3dc"/><path d="M509.73,20.46a.77.77,0,0,0,.8-.75.78.78,0,0,0-.76-.8.77.77,0,0,0-.8.75A.78.78,0,0,0,509.73,20.46Z" fill="#f8f3dc"/><path d="M493.5,15.57a.78.78,0,1,0-.75-.8A.77.77,0,0,0,493.5,15.57Z" fill="#f8f3dc"/><path d="M501.71,53.81A.78.78,0,1,0,501,53,.77.77,0,0,0,501.71,53.81Z" fill="#f8f3dc"/><path d="M457,27.47a.78.78,0,0,0,.8-.76.77.77,0,0,0-.75-.8.78.78,0,0,0-.05,1.56Z" fill="#f8f3dc"/><path d="M463.89,52.24a.78.78,0,0,0,.91-.63.78.78,0,0,0-1.53-.28A.78.78,0,0,0,463.89,52.24Z" fill="#f8f3dc"/><path d="M479.53,38.62a.77.77,0,0,0,.8-.75.78.78,0,0,0-.76-.8.77.77,0,0,0-.8.75A.78.78,0,0,0,479.53,38.62Z" fill="#f8f3dc"/><path d="M451.7,33a.78.78,0,1,0-.75-.8A.77.77,0,0,0,451.7,33Z" fill="#f8f3dc"/><path d="M486.82,66.66a.78.78,0,1,0-.76-.8A.79.79,0,0,0,486.82,66.66Z" fill="#f8f3dc"/><path d="M468.92,37.84a.78.78,0,1,0,0-1.55.77.77,0,0,0-.8.75A.78.78,0,0,0,468.92,37.84Z" fill="#f8f3dc"/><path d="M641.18,156.28a1.56,1.56,0,1,0-3.11,0,1.56,1.56,0,0,0,3.11,0Z" fill="#f8f3dc"/><path d="M965.41,95.14a1.56,1.56,0,1,0-1.55,1.56A1.56,1.56,0,0,0,965.41,95.14Z" fill="#f8f3dc"/><path d="M751.52,87.44A1.56,1.56,0,1,0,750,89,1.55,1.55,0,0,0,751.52,87.44Z" fill="#f8f3dc"/><circle cx="257.32" cy="76.43" r="1.56" fill="#f8f3dc"/><path d="M230.56,32.62A1.56,1.56,0,1,0,229,34.17,1.55,1.55,0,0,0,230.56,32.62Z" fill="#f8f3dc"/><path d="M274.38,45.41a.78.78,0,1,0,.93-.58A.77.77,0,0,0,274.38,45.41Z" fill="#f8f3dc"/><path d="M263.47,41.59a.78.78,0,0,0,.58.93.78.78,0,0,0,.36-1.51A.78.78,0,0,0,263.47,41.59Z" fill="#f8f3dc"/><path d="M276.75,36.24a.78.78,0,1,0,.93-.58A.77.77,0,0,0,276.75,36.24Z" fill="#f8f3dc"/><path d="M242.26,40.76a1.56,1.56,0,1,0-1.56,1.56A1.55,1.55,0,0,0,242.26,40.76Z" fill="#f8f3dc"/><circle cx="364.17" cy="153.3" r="2.92" fill="#f8f3dc"/><circle cx="727.56" cy="74.54" r="2.92" fill="#f8f3dc"/><circle cx="940.79" cy="104.57" r="2.92" fill="#f8f3dc"/><path d="M770.19,76.69a.78.78,0,1,0,0-1.55.77.77,0,0,0-.8.75A.78.78,0,0,0,770.19,76.69Z" fill="#f8f3dc"/><path d="M751,47.08a.78.78,0,0,0,.8-.76.77.77,0,0,0-.75-.8.78.78,0,0,0-.8.76A.77.77,0,0,0,751,47.08Z" fill="#f8f3dc"/><path d="M743.05,35.14a.77.77,0,0,0,.8-.75.78.78,0,0,0-.76-.8.77.77,0,0,0-.8.75A.78.78,0,0,0,743.05,35.14Z" fill="#f8f3dc"/><path d="M732.13,55.13a.78.78,0,0,0,.8-.76.77.77,0,0,0-.75-.8.78.78,0,0,0-.8.76A.77.77,0,0,0,732.13,55.13Z" fill="#f8f3dc"/><path d="M737.76,40.63a.78.78,0,1,0-.76-.8A.79.79,0,0,0,737.76,40.63Z" fill="#f8f3dc"/><path d="M761.65,61.46A1.56,1.56,0,1,0,760.1,63,1.55,1.55,0,0,0,761.65,61.46Z" fill="#f8f3dc"/><circle cx="488.34" cy="105.85" r="1.56" fill="#f8f3dc"/><circle cx="1173.56" cy="34.24" r="1.56" fill="#f8f3dc"/><circle cx="810.46" cy="109.26" r="1.56" fill="#f8f3dc"/><path d="M279,107.07a.78.78,0,1,0-1-.53A.78.78,0,0,0,279,107.07Z" fill="#f8f3dc"/><path d="M269.23,104.51a.78.78,0,1,0-.44-1.49.78.78,0,0,0,.44,1.49Z" fill="#f8f3dc"/><path d="M277.19,91.68a.78.78,0,1,0-.19-1.09A.78.78,0,0,0,277.19,91.68Z" fill="#f8f3dc"/><path d="M879.1,65.46a.78.78,0,0,0-1.45.58.77.77,0,0,0,1,.43A.79.79,0,0,0,879.1,65.46Z" fill="#f8f3dc"/><path d="M292,65.47a.78.78,0,1,0-1.52.36.78.78,0,0,0,1.52-.36Z" fill="#f8f3dc"/><path d="M294.48,101.18a.78.78,0,1,0-1.51.35.78.78,0,1,0,1.51-.35Z" fill="#f8f3dc"/><path d="M987,141.83a.78.78,0,1,0-.58.93A.77.77,0,0,0,987,141.83Z" fill="#f8f3dc"/><path d="M993.25,134.42a.78.78,0,1,0-.58.94A.8.8,0,0,0,993.25,134.42Z" fill="#f8f3dc"/><circle cx="959.68" cy="128.93" r="1.56" fill="#f8f3dc"/><path d="M940.77,133.35a.77.77,0,0,0,.8-.75.78.78,0,0,0-.76-.8.77.77,0,0,0-.8.75A.78.78,0,0,0,940.77,133.35Z" fill="#f8f3dc"/><path d="M865.29,71.2a.78.78,0,1,0,.05-1.55.78.78,0,1,0-.05,1.55Z" fill="#f8f3dc"/><path d="M938.4,151.88a.78.78,0,0,0,.8-.76.77.77,0,0,0-.75-.8.79.79,0,0,0-.81.75A.8.8,0,0,0,938.4,151.88Z" fill="#f8f3dc"/><path d="M850.46,74.07a.78.78,0,1,0-.44,1A.77.77,0,0,0,850.46,74.07Z" fill="#f8f3dc"/><path d="M841.21,76.3a.78.78,0,1,0-1.51.35.78.78,0,0,0,1.51-.35Z" fill="#f8f3dc"/><path d="M861,73.94a.78.78,0,0,0-.94-.58.78.78,0,1,0,.35,1.51A.78.78,0,0,0,861,73.94Z" fill="#f8f3dc"/><path d="M867.17,79.26a.78.78,0,1,0-1.51.35.77.77,0,0,0,.93.58A.78.78,0,0,0,867.17,79.26Z" fill="#f8f3dc"/><path d="M855.7,65.8a.77.77,0,0,0,.8-.75.78.78,0,1,0-.8.75Z" fill="#f8f3dc"/><path d="M818,87.83a.78.78,0,0,0-.94-.58.77.77,0,0,0-.58.93.78.78,0,0,0,1.52-.35Z" fill="#f8f3dc"/><path d="M699.33,105.08a.78.78,0,0,0,.8-.76.77.77,0,0,0-.75-.8.78.78,0,1,0,0,1.56Z" fill="#f8f3dc"/><path d="M938.67,127.56a.78.78,0,1,0-.76-.8A.78.78,0,0,0,938.67,127.56Z" fill="#f8f3dc"/><path d="M715.78,103.45a.78.78,0,1,0-1.52.35.78.78,0,0,0,1.52-.35Z" fill="#f8f3dc"/><path d="M757.93,107.73a.78.78,0,1,0-.76-.8A.79.79,0,0,0,757.93,107.73Z" fill="#f8f3dc"/><path d="M756.37,119.18a.78.78,0,0,0,0-1.56.79.79,0,0,0-.8.76A.78.78,0,0,0,756.37,119.18Z" fill="#f8f3dc"/><path d="M748.47,107.25a.78.78,0,1,0-.76-.8A.79.79,0,0,0,748.47,107.25Z" fill="#f8f3dc"/><path d="M310.4,111.31a.77.77,0,0,0,.8-.75.78.78,0,1,0-1.55,0A.77.77,0,0,0,310.4,111.31Z" fill="#f8f3dc"/><path d="M1168.66,26.37a.78.78,0,1,0-1.51.35.78.78,0,0,0,1.51-.35Z" fill="#f8f3dc"/><path d="M778.61,114.62a.78.78,0,1,0-.58.93A.77.77,0,0,0,778.61,114.62Z" fill="#f8f3dc"/><path d="M287.77,321.68a.78.78,0,1,0-.78.78A.78.78,0,0,0,287.77,321.68Z" fill="#f8f3dc"/><circle cx="281.8" cy="330.31" r="0.78" fill="#f8f3dc"/><circle cx="293.22" cy="331.08" r="0.78" fill="#f8f3dc"/><path d="M304.8,307.8a.78.78,0,1,0-1-.53A.77.77,0,0,0,304.8,307.8Z" fill="#f8f3dc"/><path d="M244.16,253.82a.78.78,0,0,0,.8-.76.77.77,0,0,0-.75-.8.78.78,0,0,0-.8.76A.77.77,0,0,0,244.16,253.82Z" fill="#f8f3dc"/><path d="M242.6,265.27a.78.78,0,1,0,.05-1.55.77.77,0,0,0-.8.75A.78.78,0,0,0,242.6,265.27Z" fill="#f8f3dc"/><path d="M234.7,253.34a.78.78,0,1,0-.75-.8A.77.77,0,0,0,234.7,253.34Z" fill="#f8f3dc"/><circle cx="208.22" cy="355.05" r="0.78" fill="#f8f3dc"/><path d="M208.15,365.57a.78.78,0,1,0-.19-1.09A.78.78,0,0,0,208.15,365.57Z" fill="#f8f3dc"/><path d="M222,304.32a.78.78,0,1,0-.19-1.08A.77.77,0,0,0,222,304.32Z" fill="#f8f3dc"/><path d="M291.49,274.28a.77.77,0,0,0-.77-.78.78.78,0,0,0-.78.78.77.77,0,0,0,.78.77A.76.76,0,0,0,291.49,274.28Z" fill="#f8f3dc"/><path d="M294.16,286.05a.79.79,0,0,0,1.09-.2A.78.78,0,0,0,294,285,.78.78,0,0,0,294.16,286.05Z" fill="#f8f3dc"/><path d="M282.58,266.49a.78.78,0,0,0,.58.94.77.77,0,0,0,.93-.58.78.78,0,1,0-1.51-.36Z" fill="#f8f3dc"/><path d="M278.27,260.21a.78.78,0,1,0,.94-.58A.78.78,0,0,0,278.27,260.21Z" fill="#f8f3dc"/><path d="M192.71,364.45a.78.78,0,1,0,1.52.36.8.8,0,0,0-.58-.94A.79.79,0,0,0,192.71,364.45Z" fill="#f8f3dc"/><path d="M166,350.75a.8.8,0,0,0,.58.94.78.78,0,0,0,.36-1.52A.8.8,0,0,0,166,350.75Z" fill="#f8f3dc"/><path d="M229.17,192.83a.78.78,0,1,0-1-.52A.78.78,0,0,0,229.17,192.83Z" fill="#f8f3dc"/><path d="M263.2,212.84a.77.77,0,0,0,.8-.75.78.78,0,1,0-1.55-.05A.77.77,0,0,0,263.2,212.84Z" fill="#f8f3dc"/><path d="M247.07,209.37a.78.78,0,0,0,.8-.75.78.78,0,1,0-1.55-.05A.77.77,0,0,0,247.07,209.37Z" fill="#f8f3dc"/><path d="M237.94,209.54a.77.77,0,1,0-.43,1A.78.78,0,0,0,237.94,209.54Z" fill="#f8f3dc"/><path d="M252.76,199.17a.77.77,0,1,0-.43,1A.77.77,0,0,0,252.76,199.17Z" fill="#f8f3dc"/><path d="M228.26,202.46a.78.78,0,1,0-.58.93A.77.77,0,0,0,228.26,202.46Z" fill="#f8f3dc"/><path d="M309.2,257.43a.78.78,0,1,0-.44-1.49.76.76,0,0,0-.52,1A.78.78,0,0,0,309.2,257.43Z" fill="#f8f3dc"/><path d="M331.93,254.37a.78.78,0,1,0-.44,1A.77.77,0,0,0,331.93,254.37Z" fill="#f8f3dc"/><path d="M190.25,313.54a1.56,1.56,0,1,0-1.55,1.56A1.55,1.55,0,0,0,190.25,313.54Z" fill="#f8f3dc"/><path d="M300.6,244.71a1.56,1.56,0,1,0-1.56,1.55A1.56,1.56,0,0,0,300.6,244.71Z" fill="#f8f3dc"/><circle cx="276.64" cy="231.81" r="2.92" fill="#f8f3dc"/><path d="M319.27,234a.78.78,0,1,0-.76-.8A.78.78,0,0,0,319.27,234Z" fill="#f8f3dc"/><path d="M300,204.34a.78.78,0,1,0-.75-.8A.77.77,0,0,0,300,204.34Z" fill="#f8f3dc"/><path d="M292.12,192.41a.78.78,0,0,0,0-1.56.79.79,0,0,0-.8.76A.78.78,0,0,0,292.12,192.41Z" fill="#f8f3dc"/><path d="M281.2,212.4a.8.8,0,0,0,.81-.76.78.78,0,1,0-.81.76Z" fill="#f8f3dc"/><path d="M286.83,197.9a.78.78,0,1,0-.76-.81A.8.8,0,0,0,286.83,197.9Z" fill="#f8f3dc"/><path d="M310.72,218.73a1.56,1.56,0,1,0-1.55,1.56A1.55,1.55,0,0,0,310.72,218.73Z" fill="#f8f3dc"/><path d="M248.4,262.34a.78.78,0,1,0-.75-.8A.77.77,0,0,0,248.4,262.34Z" fill="#f8f3dc"/><path d="M264.85,260.71a.78.78,0,0,0-.93-.58.78.78,0,1,0,.35,1.52A.78.78,0,0,0,264.85,260.71Z" fill="#f8f3dc"/><path d="M307,265a.77.77,0,0,0,.8-.75.78.78,0,0,0-.76-.8.77.77,0,0,0-.8.75A.78.78,0,0,0,307,265Z" fill="#f8f3dc"/><path d="M305.44,276.45a.78.78,0,0,0,.8-.76.77.77,0,0,0-.75-.8.78.78,0,0,0-.05,1.56Z" fill="#f8f3dc"/><path d="M297.54,264.51a.77.77,0,0,0,.8-.75.78.78,0,0,0-.76-.8.77.77,0,0,0-.8.75A.78.78,0,0,0,297.54,264.51Z" fill="#f8f3dc"/><path d="M327.69,271.89a.79.79,0,0,0-.94-.59.78.78,0,0,0,.36,1.52A.79.79,0,0,0,327.69,271.89Z" fill="#f8f3dc"/><path d="M491.89,82.34a.78.78,0,1,0-.75-.8A.77.77,0,0,0,491.89,82.34Z" fill="#f8f3dc"/><path d="M496.13,94.57a.78.78,0,1,0,.05-1.55.78.78,0,0,0-.05,1.55Z" fill="#f8f3dc"/><path d="M500.62,86.36a.8.8,0,0,0,.84-.76.82.82,0,0,0-1.63,0A.81.81,0,0,0,500.62,86.36Z" fill="#f8f3dc"/><circle cx="252.78" cy="543.42" r="0.78" fill="#f8f3dc"/><path d="M197.55,500.18a.78.78,0,1,0,.35-1A.78.78,0,0,0,197.55,500.18Z" fill="#f8f3dc"/><path d="M205.53,541.5a.78.78,0,1,0,1.09-.12A.78.78,0,0,0,205.53,541.5Z" fill="#f8f3dc"/><path d="M192.5,538a.78.78,0,0,0,1.22,1,.78.78,0,0,0-1.22-1Z" fill="#f8f3dc"/><path d="M227.12,547.76a.77.77,0,0,0,.12,1.09.78.78,0,0,0,1.09-.12.78.78,0,0,0-1.21-1Z" fill="#f8f3dc"/><path d="M309.39,422.42a.78.78,0,1,0-.75-.8A.77.77,0,0,0,309.39,422.42Z" fill="#f8f3dc"/><path d="M278,435.88a.78.78,0,1,0-.76-.81A.8.8,0,0,0,278,435.88Z" fill="#f8f3dc"/><path d="M260.21,441.32a.77.77,0,0,0,.8-.75.78.78,0,0,0-.76-.8.77.77,0,0,0-.8.75A.78.78,0,0,0,260.21,441.32Z" fill="#f8f3dc"/><path d="M241.38,487.8a.78.78,0,0,0,.28-1.53.78.78,0,0,0-.91.63A.79.79,0,0,0,241.38,487.8Z" fill="#f8f3dc"/><path d="M235.84,453.26a.8.8,0,0,0,.81-.76.78.78,0,1,0-.81.76Z" fill="#f8f3dc"/><path d="M254.92,446.81a.78.78,0,1,0-.76-.8A.79.79,0,0,0,254.92,446.81Z" fill="#f8f3dc"/><path d="M243.08,434.32a.8.8,0,0,0,.81-.76.78.78,0,0,0-1.56,0A.77.77,0,0,0,243.08,434.32Z" fill="#f8f3dc"/><path d="M226.86,429.43a.78.78,0,0,0,0-1.56.8.8,0,0,0-.81.76A.78.78,0,0,0,226.86,429.43Z" fill="#f8f3dc"/><path d="M235.07,467.67a.78.78,0,1,0,0-1.56.77.77,0,0,0-.8.75A.8.8,0,0,0,235.07,467.67Z" fill="#f8f3dc"/><path d="M197.25,466.1a.78.78,0,0,0,.28-1.54.78.78,0,0,0-.28,1.54Z" fill="#f8f3dc"/><path d="M212.88,452.48a.78.78,0,0,0,.8-.76.77.77,0,0,0-.75-.8.78.78,0,0,0-.8.76A.77.77,0,0,0,212.88,452.48Z" fill="#f8f3dc"/><path d="M220.17,480.52a.78.78,0,0,0,.8-.76.78.78,0,1,0-1.55-.05A.78.78,0,0,0,220.17,480.52Z" fill="#f8f3dc"/><path d="M202.27,451.7a.78.78,0,0,0,.8-.75.78.78,0,1,0-1.55-.05A.77.77,0,0,0,202.27,451.7Z" fill="#f8f3dc"/><circle cx="221.69" cy="519.71" r="1.56" fill="#f8f3dc"/><path d="M225.25,496.2a.78.78,0,1,0-.76-.8A.78.78,0,0,0,225.25,496.2Z" fill="#f8f3dc"/><path d="M229.49,508.43a.78.78,0,1,0-.75-.8A.77.77,0,0,0,229.49,508.43Z" fill="#f8f3dc"/><path d="M234,500.21a.78.78,0,1,0-.8-.8A.8.8,0,0,0,234,500.21Z" fill="#f8f3dc"/><circle cx="141.11" cy="203.54" r="0.78" fill="#f8f3dc"/><path d="M127.07,295a.78.78,0,1,0-1.55,0,.78.78,0,0,0,1.55,0Z" fill="#f8f3dc"/><path d="M118.07,493.2a.8.8,0,0,0-.76-.81.78.78,0,1,0,.76.81Z" fill="#f8f3dc"/><path d="M129.52,494.75a.77.77,0,0,0-.75-.8.8.8,0,0,0-.81.76.78.78,0,0,0,1.56,0Z" fill="#f8f3dc"/><path d="M117.59,502.66a.78.78,0,0,0-.76-.8.77.77,0,0,0-.8.75.78.78,0,0,0,1.56.05Z" fill="#f8f3dc"/><path d="M129.52,527a.77.77,0,0,0-.75-.8.78.78,0,1,0-.05,1.55A.77.77,0,0,0,129.52,527Z" fill="#f8f3dc"/><path d="M155.44,340.22a.78.78,0,1,0-1.08.19A.77.77,0,0,0,155.44,340.22Z" fill="#f8f3dc"/><path d="M136.72,343.45a.78.78,0,0,0-1.09-1.12.78.78,0,0,0,0,1.1A.78.78,0,0,0,136.72,343.45Z" fill="#f8f3dc"/><path d="M168.93,336.79a.78.78,0,1,0,.78.78A.78.78,0,0,0,168.93,336.79Z" fill="#f8f3dc"/><path d="M144.4,335.21a.78.78,0,1,0-1.08.2A.77.77,0,0,0,144.4,335.21Z" fill="#f8f3dc"/><path d="M73.48,494.09a.77.77,0,0,0-.77.78.76.76,0,0,0,.77.77.77.77,0,0,0,.78-.77A.78.78,0,0,0,73.48,494.09Z" fill="#f8f3dc"/><path d="M103,502.56a.78.78,0,0,0-1.09-1.12.78.78,0,0,0,0,1.1A.78.78,0,0,0,103,502.56Z" fill="#f8f3dc"/><path d="M89.49,495.31a.78.78,0,1,0-1.09.19A.78.78,0,0,0,89.49,495.31Z" fill="#f8f3dc"/><path d="M162.69,428.88a1.32,1.32,0,1,0,1.8.49A1.31,1.31,0,0,0,162.69,428.88Z" fill="#f8f3dc"/><path d="M149.26,440.51a1.32,1.32,0,1,0-1.65-.89A1.32,1.32,0,0,0,149.26,440.51Z" fill="#f8f3dc"/><path d="M136,440.51a1.32,1.32,0,1,0-1.64-.89A1.32,1.32,0,0,0,136,440.51Z" fill="#f8f3dc"/><path d="M138.78,422.6a1.32,1.32,0,1,0-1.64-.88A1.31,1.31,0,0,0,138.78,422.6Z" fill="#f8f3dc"/><path d="M155.39,416.1a1.32,1.32,0,1,0-1.64-.88A1.31,1.31,0,0,0,155.39,416.1Z" fill="#f8f3dc"/><circle cx="115.51" cy="352.43" r="0.78" fill="#f8f3dc"/><path d="M145.05,360.12a.78.78,0,0,0,0-1.1.78.78,0,0,0-1.12,1.09A.8.8,0,0,0,145.05,360.12Z" fill="#f8f3dc"/><path d="M144.36,381.92a.78.78,0,1,0-1.28-.89.78.78,0,0,0,1.28.89Z" fill="#f8f3dc"/><path d="M159.27,381.14a.78.78,0,1,0-1.09.19A.78.78,0,0,0,159.27,381.14Z" fill="#f8f3dc"/><path d="M117.93,378.82a.78.78,0,1,0-.58-.93A.77.77,0,0,0,117.93,378.82Z" fill="#f8f3dc"/><path d="M127.1,399.28a.78.78,0,1,0-.58-.93A.78.78,0,0,0,127.1,399.28Z" fill="#f8f3dc"/><path d="M117.93,396.91a.78.78,0,1,0-.58-.93A.78.78,0,0,0,117.93,396.91Z" fill="#f8f3dc"/><path d="M129.28,375a.79.79,0,0,0,1-.44.78.78,0,1,0-1,.44Z" fill="#f8f3dc"/><circle cx="163.71" cy="399.4" r="0.78" fill="#f8f3dc"/><path d="M144.8,399.5a.78.78,0,1,0-.58-.94A.78.78,0,0,0,144.8,399.5Z" fill="#f8f3dc"/><path d="M97.88,258.77a.78.78,0,1,0-.7-1.4.78.78,0,0,0,.7,1.4Z" fill="#f8f3dc"/><path d="M139.19,250.78a.78.78,0,1,0-.12-1.09A.78.78,0,0,0,139.19,250.78Z" fill="#f8f3dc"/><path d="M135.71,263.81a.78.78,0,1,0-.12-1.09A.77.77,0,0,0,135.71,263.81Z" fill="#f8f3dc"/><path d="M145.45,229.2a.78.78,0,0,0,1-1.22.78.78,0,0,0-1,1.22Z" fill="#f8f3dc"/><path d="M93.7,474a.78.78,0,1,0,.62.91A.78.78,0,0,0,93.7,474Z" fill="#f8f3dc"/><path d="M65.49,433.08a.77.77,0,0,0-.75-.8.78.78,0,1,0,0,1.56A.78.78,0,0,0,65.49,433.08Z" fill="#f8f3dc"/><path d="M19.09,277.53a.78.78,0,1,0-1.55,0,.78.78,0,0,0,1.55,0Z" fill="#f8f3dc"/><path d="M99.91,434.28a.78.78,0,1,0-.8.75A.77.77,0,0,0,99.91,434.28Z" fill="#f8f3dc"/><path d="M118.82,430.56a.78.78,0,1,0-.8.76A.78.78,0,0,0,118.82,430.56Z" fill="#f8f3dc"/><path d="M142.16,407.29a.78.78,0,1,0-.8.75A.77.77,0,0,0,142.16,407.29Z" fill="#f8f3dc"/><path d="M39,196.11a.78.78,0,1,0-.8.75A.77.77,0,0,0,39,196.11Z" fill="#f8f3dc"/><path d="M85.49,214.94a.78.78,0,1,0-1.53-.28.78.78,0,0,0,1.53.28Z" fill="#f8f3dc"/><path d="M37,318.55a.78.78,0,1,0-.53,1A.78.78,0,0,0,37,318.55Z" fill="#f8f3dc"/><path d="M24.06,313.28a.78.78,0,1,0-.53,1A.77.77,0,0,0,24.06,313.28Z" fill="#f8f3dc"/><path d="M38.34,307.15a.78.78,0,0,0-1.5.44.78.78,0,0,0,1.5-.44Z" fill="#f8f3dc"/><path d="M83.91,314.9a.78.78,0,1,0,1,.44A.77.77,0,0,0,83.91,314.9Z" fill="#f8f3dc"/><path d="M120.06,357a.78.78,0,0,0-.58.94.77.77,0,0,0,.93.58.78.78,0,0,0-.35-1.52Z" fill="#f8f3dc"/><path d="M117.88,464.81a.78.78,0,0,0-.63-.9.77.77,0,0,0-.9.62.78.78,0,1,0,1.53.28Z" fill="#f8f3dc"/><path d="M51,220.47a.78.78,0,0,0-.76-.8.77.77,0,0,0-.8.75.78.78,0,0,0,.76.8A.77.77,0,0,0,51,220.47Z" fill="#f8f3dc"/><path d="M44.5,201.4a.78.78,0,1,0-.8.75A.77.77,0,0,0,44.5,201.4Z" fill="#f8f3dc"/><path d="M32,213.23a.78.78,0,0,0-1.56,0,.8.8,0,0,0,.76.81A.78.78,0,0,0,32,213.23Z" fill="#f8f3dc"/><path d="M27.12,229.46a.78.78,0,1,0-1.56-.05.78.78,0,0,0,1.56.05Z" fill="#f8f3dc"/><path d="M65.36,221.25a.78.78,0,0,0-.76-.8.77.77,0,0,0-.8.75.78.78,0,0,0,1.56.05Z" fill="#f8f3dc"/><path d="M39,266a.8.8,0,0,0-.76-.81.78.78,0,0,0-.8.76.77.77,0,0,0,.75.8A.8.8,0,0,0,39,266Z" fill="#f8f3dc"/><path d="M63.79,259.06a.79.79,0,0,0-.63-.9.78.78,0,0,0-.28,1.53A.78.78,0,0,0,63.79,259.06Z" fill="#f8f3dc"/><path d="M50.17,243.43a.78.78,0,1,0-1.56,0,.79.79,0,0,0,.76.8A.78.78,0,0,0,50.17,243.43Z" fill="#f8f3dc"/><path d="M44.5,271.26a.77.77,0,0,0-.75-.8.78.78,0,1,0,0,1.55A.77.77,0,0,0,44.5,271.26Z" fill="#f8f3dc"/><path d="M78.21,236.14a.78.78,0,1,0-.81.76A.8.8,0,0,0,78.21,236.14Z" fill="#f8f3dc"/><path d="M49.39,254a.78.78,0,0,0-.75-.8.8.8,0,0,0-.81.76.78.78,0,1,0,1.56,0Z" fill="#f8f3dc"/><circle cx="87.98" cy="465.64" r="1.56" fill="#f8f3dc"/><path d="M44.16,492.39A1.56,1.56,0,1,0,45.72,494,1.55,1.55,0,0,0,44.16,492.39Z" fill="#f8f3dc"/><path d="M57,448.58a.78.78,0,1,0-.58-.93A.78.78,0,0,0,57,448.58Z" fill="#f8f3dc"/><path d="M53.13,459.49a.78.78,0,1,0,.36-1.52.8.8,0,0,0-.94.58A.79.79,0,0,0,53.13,459.49Z" fill="#f8f3dc"/><path d="M47.79,446.21a.78.78,0,1,0-.58-.93A.78.78,0,0,0,47.79,446.21Z" fill="#f8f3dc"/><path d="M52.31,480.7a1.56,1.56,0,1,0,1.56,1.56A1.56,1.56,0,0,0,52.31,480.7Z" fill="#f8f3dc"/><circle cx="164.85" cy="358.78" r="2.92" fill="#f8f3dc"/><circle cx="117.4" cy="234.62" r="1.56" fill="#f8f3dc"/><path d="M118.62,444a.78.78,0,1,0-.53,1A.79.79,0,0,0,118.62,444Z" fill="#f8f3dc"/><path d="M116.06,453.73a.78.78,0,1,0-.53,1A.78.78,0,0,0,116.06,453.73Z" fill="#f8f3dc"/><path d="M103.22,445.77a.78.78,0,1,0-1.08.19A.77.77,0,0,0,103.22,445.77Z" fill="#f8f3dc"/><path d="M77,431a.78.78,0,0,0-.58.93.78.78,0,1,0,1.52-.35A.78.78,0,0,0,77,431Z" fill="#f8f3dc"/><path d="M112.72,428.47a.78.78,0,1,0,.94.59A.79.79,0,0,0,112.72,428.47Z" fill="#f8f3dc"/><path d="M122.86,412.56a.78.78,0,0,0-.76-.8.77.77,0,0,0-.8.75.78.78,0,0,0,.76.8A.77.77,0,0,0,122.86,412.56Z" fill="#f8f3dc"/><path d="M93.89,231.07a.78.78,0,1,0-.8.75A.77.77,0,0,0,93.89,231.07Z" fill="#f8f3dc"/><path d="M106.12,226.82a.78.78,0,1,0-1.55,0,.77.77,0,0,0,.75.8A.78.78,0,0,0,106.12,226.82Z" fill="#f8f3dc"/><path d="M97.9,222.34a.78.78,0,1,0-.8.79A.79.79,0,0,0,97.9,222.34Z" fill="#f8f3dc"/><path d="M959.9,137.68a.78.78,0,1,0-1-.53A.78.78,0,0,0,959.9,137.68Z" fill="#f8f3dc"/><path d="M967.71,142.71a.78.78,0,1,0-.58.93A.77.77,0,0,0,967.71,142.71Z" fill="#f8f3dc"/><circle cx="1115.44" cy="155.61" r="1.56" fill="#f8f3dc"/><path d="M1138.76,236.31a.77.77,0,0,0,.75.8.78.78,0,1,0-.75-.8Z" fill="#f8f3dc"/><path d="M1150.69,228.41a.78.78,0,1,0,1.55,0,.77.77,0,0,0-.75-.8A.78.78,0,0,0,1150.69,228.41Z" fill="#f8f3dc"/><path d="M1125.92,217.3a.78.78,0,1,0,.9-.62A.77.77,0,0,0,1125.92,217.3Z" fill="#f8f3dc"/><path d="M1138.76,204a.78.78,0,1,0,.8-.75A.77.77,0,0,0,1138.76,204Z" fill="#f8f3dc"/><path d="M1130.7,226.39a.78.78,0,1,0,.8-.76A.79.79,0,0,0,1130.7,226.39Z" fill="#f8f3dc"/><path d="M1145.2,223.11a.78.78,0,0,0,.76.8.77.77,0,0,0,.8-.75.78.78,0,0,0-1.56,0Z" fill="#f8f3dc"/><path d="M1157.69,211.28a.78.78,0,0,0,.76.8.77.77,0,0,0,.8-.75.78.78,0,0,0-.76-.8A.77.77,0,0,0,1157.69,211.28Z" fill="#f8f3dc"/><path d="M1135.3,264.93a.78.78,0,0,0,.62.91.79.79,0,0,0,.91-.63.78.78,0,0,0-1.53-.28Z" fill="#f8f3dc"/><path d="M1118.5,241.11a.79.79,0,0,0,.76.8.78.78,0,1,0-.76-.8Z" fill="#f8f3dc"/><path d="M1097.44,312.81a.78.78,0,0,0,1.55.05.78.78,0,1,0-1.55-.05Z" fill="#f8f3dc"/><path d="M1086,311.25a.78.78,0,0,0,.76.8.77.77,0,0,0,.8-.75.78.78,0,0,0-.75-.8A.79.79,0,0,0,1086,311.25Z" fill="#f8f3dc"/><path d="M1097.92,303.35a.78.78,0,1,0,1.55,0,.78.78,0,1,0-1.55,0Z" fill="#f8f3dc"/><path d="M1121.72,310.06a.78.78,0,1,0,1.53.27.79.79,0,0,0-.63-.9A.77.77,0,0,0,1121.72,310.06Z" fill="#f8f3dc"/><path d="M1104.92,286.23a.78.78,0,1,0,.8-.76A.78.78,0,0,0,1104.92,286.23Z" fill="#f8f3dc"/><path d="M1092.81,177.23a.78.78,0,1,0,1.08-.19A.78.78,0,0,0,1092.81,177.23Z" fill="#f8f3dc"/><path d="M1092,160.64a.78.78,0,0,0,1.09,1.12.78.78,0,0,0-1.09-1.12Z" fill="#f8f3dc"/><path d="M1089.31,429.37a.78.78,0,0,0,.89,1.28.78.78,0,0,0,.19-1.09A.77.77,0,0,0,1089.31,429.37Z" fill="#f8f3dc"/><path d="M1091.91,292.08a.78.78,0,1,0,1.09.19A.78.78,0,0,0,1091.91,292.08Z" fill="#f8f3dc"/><path d="M1124.35,203.26a.78.78,0,1,0,1.55.05.78.78,0,0,0-1.55-.05Z" fill="#f8f3dc"/><path d="M1172,173.69a.78.78,0,1,0,1.55.05.78.78,0,1,0-1.55-.05Z" fill="#f8f3dc"/><path d="M1183.88,165.79a.78.78,0,1,0,.8-.75A.77.77,0,0,0,1183.88,165.79Z" fill="#f8f3dc"/><path d="M1159.11,152.89a.78.78,0,0,0,.62.91.79.79,0,0,0,.91-.63.78.78,0,0,0-1.53-.28Z" fill="#f8f3dc"/><path d="M1163.89,163.77a.78.78,0,0,0,.76.8.77.77,0,0,0,.8-.75.78.78,0,0,0-.76-.8A.77.77,0,0,0,1163.89,163.77Z" fill="#f8f3dc"/><path d="M1178.39,160.5a.78.78,0,0,0,.76.8.77.77,0,0,0,.8-.75.8.8,0,0,0-.76-.81A.79.79,0,0,0,1178.39,160.5Z" fill="#f8f3dc"/><path d="M1139.53,181.08a.78.78,0,0,0,.76.8.77.77,0,0,0,.8-.75.78.78,0,0,0-1.56,0Z" fill="#f8f3dc"/><path d="M1141.16,163.86a.78.78,0,1,0,.53-1A.78.78,0,0,0,1141.16,163.86Z" fill="#f8f3dc"/><path d="M1087.78,248.89a.78.78,0,1,0,1.5-.44.78.78,0,0,0-1.5.44Z" fill="#f8f3dc"/><path d="M1131.12,281.2a1.56,1.56,0,1,0-1.56-1.55A1.55,1.55,0,0,0,1131.12,281.2Z" fill="#f8f3dc"/><circle cx="1121.69" cy="256.58" r="2.92" fill="#f8f3dc"/><circle cx="1117" cy="126.26" r="1.56" fill="#f8f3dc"/><path d="M1160.79,194.89a.78.78,0,1,0-1-.44A.78.78,0,0,0,1160.79,194.89Z" fill="#f8f3dc"/><path d="M1084.42,302.79a.78.78,0,1,0-.35-1.51.78.78,0,1,0,.35,1.51Z" fill="#f8f3dc"/><path d="M1091.83,309a.78.78,0,1,0-.93-.58A.77.77,0,0,0,1091.83,309Z" fill="#f8f3dc"/><circle cx="1097.33" cy="275.47" r="1.56" fill="#f8f3dc"/><path d="M1092.9,256.56a.78.78,0,0,0,.76.8.77.77,0,0,0,.8-.75.8.8,0,0,0-.76-.81A.79.79,0,0,0,1092.9,256.56Z" fill="#f8f3dc"/><path d="M1155.05,181.08a.78.78,0,0,0,.76.8.77.77,0,0,0,.8-.75.78.78,0,0,0-.76-.8A.77.77,0,0,0,1155.05,181.08Z" fill="#f8f3dc"/><path d="M1074.38,254.19a.78.78,0,1,0,.8-.75A.77.77,0,0,0,1074.38,254.19Z" fill="#f8f3dc"/><path d="M1152.18,166.25a.78.78,0,1,0-1-.44A.78.78,0,0,0,1152.18,166.25Z" fill="#f8f3dc"/><path d="M1150,157a.78.78,0,0,0,.58-.94.77.77,0,0,0-.93-.58A.78.78,0,0,0,1150,157Z" fill="#f8f3dc"/><path d="M1152.32,176.78a.78.78,0,1,0-.94-.58A.8.8,0,0,0,1152.32,176.78Z" fill="#f8f3dc"/><path d="M1147,183a.77.77,0,0,0,.58-.93.78.78,0,0,0-.93-.58A.78.78,0,1,0,1147,183Z" fill="#f8f3dc"/><path d="M1160.45,171.49a.78.78,0,0,0,.75.8.78.78,0,1,0,0-1.55A.77.77,0,0,0,1160.45,171.49Z" fill="#f8f3dc"/><path d="M1138.43,133.83a.78.78,0,0,0-.36-1.52.78.78,0,1,0,.36,1.52Z" fill="#f8f3dc"/><path d="M1098.7,254.46a.78.78,0,1,0,1.55,0,.78.78,0,1,0-1.55,0Z" fill="#f8f3dc"/><path d="M1088.57,275.69a.78.78,0,1,0,1.5-.44.78.78,0,0,0-1.5.44Z" fill="#f8f3dc"/><path d="M1083.55,283.51a.8.8,0,0,0,.58-.94.78.78,0,0,0-1.52.35A.79.79,0,0,0,1083.55,283.51Z" fill="#f8f3dc"/><path d="M959.58,437.76a.78.78,0,1,0,1,.53A.78.78,0,0,0,959.58,437.76Z" fill="#f8f3dc"/><path d="M945.63,457.52a.78.78,0,1,0,1,.53A.78.78,0,0,0,945.63,457.52Z" fill="#f8f3dc"/><path d="M969.32,440.32a.78.78,0,1,0,1,.53A.77.77,0,0,0,969.32,440.32Z" fill="#f8f3dc"/><path d="M1167.64,491.55a.78.78,0,0,0-.05,1.56.8.8,0,0,0,.81-.76A.79.79,0,0,0,1167.64,491.55Z" fill="#f8f3dc"/><path d="M1175.54,503.49a.77.77,0,0,0-.8.75.78.78,0,0,0,.76.8.77.77,0,0,0,.8-.75A.78.78,0,0,0,1175.54,503.49Z" fill="#f8f3dc"/><path d="M1177.56,483.5a.77.77,0,0,0-.8.75.8.8,0,0,0,.76.81.78.78,0,0,0,0-1.56Z" fill="#f8f3dc"/><path d="M1180.84,498a.78.78,0,1,0,0,1.56.78.78,0,0,0,0-1.56Z" fill="#f8f3dc"/><path d="M1139,488.09a.79.79,0,0,0-.91.63.78.78,0,1,0,.91-.63Z" fill="#f8f3dc"/><path d="M1162.84,471.3a.79.79,0,0,0-.8.75.8.8,0,0,0,.76.81.78.78,0,0,0,0-1.56Z" fill="#f8f3dc"/><path d="M1091.14,450.24a.78.78,0,1,0,.75.8A.77.77,0,0,0,1091.14,450.24Z" fill="#f8f3dc"/><path d="M1092.7,438.78a.78.78,0,0,0-.8.76.77.77,0,0,0,.75.8.78.78,0,0,0,.8-.76A.77.77,0,0,0,1092.7,438.78Z" fill="#f8f3dc"/><path d="M1100.6,450.71a.78.78,0,0,0-.8.76.78.78,0,1,0,1.55,0A.78.78,0,0,0,1100.6,450.71Z" fill="#f8f3dc"/><path d="M1093.89,474.51a.79.79,0,0,0-.9.63.78.78,0,0,0,1.53.28A.78.78,0,0,0,1093.89,474.51Z" fill="#f8f3dc"/><path d="M1117.72,457.72a.77.77,0,0,0-.8.75.8.8,0,0,0,.76.81.78.78,0,1,0,0-1.56Z" fill="#f8f3dc"/><path d="M997.38,390.32a.78.78,0,0,0-.89,1.27.78.78,0,0,0,1.09-.19A.77.77,0,0,0,997.38,390.32Z" fill="#f8f3dc"/><path d="M992.56,412.27a.78.78,0,0,0-1.09.19.78.78,0,1,0,1.09-.19Z" fill="#f8f3dc"/><path d="M1009.49,426.3a.77.77,0,0,0-.58-.93.78.78,0,1,0,.58.93Z" fill="#f8f3dc"/><path d="M996.21,431.65a.78.78,0,1,0-1.51-.36.78.78,0,0,0,1.51.36Z" fill="#f8f3dc"/><path d="M1066.94,345a.78.78,0,1,0-.94.58A.78.78,0,0,0,1066.94,345Z" fill="#f8f3dc"/><path d="M935.92,449.6a.78.78,0,1,0-1,.43A.78.78,0,0,0,935.92,449.6Z" fill="#f8f3dc"/><path d="M933.05,439.74a.78.78,0,1,0-.93.58A.77.77,0,0,0,933.05,439.74Z" fill="#f8f3dc"/><path d="M932.27,423.33a.78.78,0,1,0-.93.58A.77.77,0,0,0,932.27,423.33Z" fill="#f8f3dc"/><path d="M948,427.77a.78.78,0,1,0-.93.58A.77.77,0,0,0,948,427.77Z" fill="#f8f3dc"/><path d="M1067.63,407.29a.79.79,0,0,0-1.09-.2.79.79,0,0,0-.19,1.09.78.78,0,0,0,1.09.19A.77.77,0,0,0,1067.63,407.29Z" fill="#f8f3dc"/><path d="M1068.32,417.33a.78.78,0,1,0-.19,1.08A.77.77,0,0,0,1068.32,417.33Z" fill="#f8f3dc"/><path d="M1068.38,375.27a.78.78,0,1,0-.2,1.08A.78.78,0,0,0,1068.38,375.27Z" fill="#f8f3dc"/><path d="M1078.12,411.42a.78.78,0,1,0-.19,1.09A.78.78,0,0,0,1078.12,411.42Z" fill="#f8f3dc"/><path d="M1111.87,444.71a.78.78,0,1,0-.19,1.08A.77.77,0,0,0,1111.87,444.71Z" fill="#f8f3dc"/><path d="M1067.2,442.81a.78.78,0,1,0-.19,1.08A.78.78,0,0,0,1067.2,442.81Z" fill="#f8f3dc"/><path d="M1155.06,440.58a.78.78,0,1,0,1,.53A.78.78,0,0,0,1155.06,440.58Z" fill="#f8f3dc"/><path d="M1122.75,483.91a1.56,1.56,0,1,0,1.55-1.55A1.55,1.55,0,0,0,1122.75,483.91Z" fill="#f8f3dc"/><circle cx="1147.37" cy="474.48" r="2.92" fill="#f8f3dc"/><circle cx="951.03" cy="477.7" r="1.56" fill="#f8f3dc"/><path d="M1101.15,437.22a.78.78,0,0,0,.94.58.78.78,0,0,0-.35-1.51A.78.78,0,0,0,1101.15,437.22Z" fill="#f8f3dc"/><path d="M1094.91,444.63a.78.78,0,0,0,.93.58.78.78,0,1,0-.35-1.52A.78.78,0,0,0,1094.91,444.63Z" fill="#f8f3dc"/><circle cx="1128.48" cy="450.12" r="1.56" fill="#f8f3dc"/><path d="M1147.39,445.7a.78.78,0,0,0-.8.75.78.78,0,1,0,1.55.05A.77.77,0,0,0,1147.39,445.7Z" fill="#f8f3dc"/><path d="M1149.76,427.18a.78.78,0,1,0,.75.8A.77.77,0,0,0,1149.76,427.18Z" fill="#f8f3dc"/><path d="M1149.49,451.49a.78.78,0,0,0-.8.76.77.77,0,0,0,.75.8.78.78,0,0,0,.8-.76A.77.77,0,0,0,1149.49,451.49Z" fill="#f8f3dc"/><path d="M955.92,485.57a.78.78,0,0,0,.94.58.77.77,0,0,0,.58-.93.78.78,0,0,0-1.52.35Z" fill="#f8f3dc"/><path d="M1128.26,441.37a.78.78,0,1,0,1,.53A.77.77,0,0,0,1128.26,441.37Z" fill="#f8f3dc"/><path d="M1120.44,436.34a.78.78,0,0,0,.94.58.77.77,0,0,0,.58-.93.78.78,0,0,0-1.52.35Z" fill="#f8f3dc"/><circle cx="1009.14" cy="356.33" r="1.56" fill="#f8f3dc"/><path d="M985.83,275.63a.78.78,0,1,0-.8.75A.77.77,0,0,0,985.83,275.63Z" fill="#f8f3dc"/><path d="M973.9,283.53a.78.78,0,1,0-.8.76A.78.78,0,0,0,973.9,283.53Z" fill="#f8f3dc"/><path d="M998.67,294.63a.78.78,0,1,0-.91.63A.77.77,0,0,0,998.67,294.63Z" fill="#f8f3dc"/><path d="M985.83,307.9a.78.78,0,1,0-1.56,0,.78.78,0,0,0,1.56,0Z" fill="#f8f3dc"/><path d="M993.88,285.55a.77.77,0,0,0-.75-.8.78.78,0,1,0,.75.8Z" fill="#f8f3dc"/><path d="M979.38,288.82a.77.77,0,0,0-.75-.8.78.78,0,0,0-.8.76.77.77,0,0,0,.75.8A.78.78,0,0,0,979.38,288.82Z" fill="#f8f3dc"/><path d="M966.89,300.66a.78.78,0,1,0-1.55-.05.77.77,0,0,0,.75.8A.78.78,0,0,0,966.89,300.66Z" fill="#f8f3dc"/><path d="M989.29,247a.78.78,0,0,0-.63-.9.78.78,0,0,0-.28,1.53A.78.78,0,0,0,989.29,247Z" fill="#f8f3dc"/><path d="M1006.08,270.83a.77.77,0,0,0-.75-.8.78.78,0,0,0-.8.76.77.77,0,0,0,.75.8A.78.78,0,0,0,1006.08,270.83Z" fill="#f8f3dc"/><path d="M1027.15,199.13a.78.78,0,0,0-.76-.8.77.77,0,0,0-.8.75.78.78,0,0,0,.76.8A.77.77,0,0,0,1027.15,199.13Z" fill="#f8f3dc"/><path d="M1038.6,200.68a.78.78,0,1,0-1.55,0,.77.77,0,0,0,.75.8A.78.78,0,0,0,1038.6,200.68Z" fill="#f8f3dc"/><path d="M1026.67,208.59a.78.78,0,0,0-.76-.8.77.77,0,0,0-.8.75.78.78,0,0,0,.76.8A.77.77,0,0,0,1026.67,208.59Z" fill="#f8f3dc"/><path d="M1002.87,201.88a.78.78,0,0,0-1.53-.28.78.78,0,1,0,1.53.28Z" fill="#f8f3dc"/><path d="M1019.66,225.71a.77.77,0,0,0-.75-.8.78.78,0,0,0-.8.75.78.78,0,1,0,1.55.05Z" fill="#f8f3dc"/><path d="M1031.78,334.7a.78.78,0,0,0-1.28-.89.79.79,0,0,0,.19,1.09A.79.79,0,0,0,1031.78,334.7Z" fill="#f8f3dc"/><path d="M1032.54,351.29a.78.78,0,0,0,0-1.1.78.78,0,0,0-1.1,0,.78.78,0,0,0,0,1.1A.77.77,0,0,0,1032.54,351.29Z" fill="#f8f3dc"/><path d="M1032.67,219.86a.78.78,0,0,0,.2-1.08.78.78,0,1,0-1.28.89A.77.77,0,0,0,1032.67,219.86Z" fill="#f8f3dc"/><path d="M1000.24,308.67a.78.78,0,1,0-.8.76A.79.79,0,0,0,1000.24,308.67Z" fill="#f8f3dc"/><path d="M952.64,338.24a.78.78,0,1,0-.8.76A.79.79,0,0,0,952.64,338.24Z" fill="#f8f3dc"/><path d="M940.71,346.15a.78.78,0,0,0-.76-.8.77.77,0,0,0-.8.75.78.78,0,0,0,1.56,0Z" fill="#f8f3dc"/><path d="M965.48,359a.78.78,0,0,0-.63-.9.78.78,0,0,0-.28,1.53A.78.78,0,0,0,965.48,359Z" fill="#f8f3dc"/><path d="M960.69,348.17a.78.78,0,1,0-1.55-.05.78.78,0,0,0,1.55.05Z" fill="#f8f3dc"/><path d="M946.19,351.44a.78.78,0,1,0-.8.75A.77.77,0,0,0,946.19,351.44Z" fill="#f8f3dc"/><path d="M985.05,330.86a.78.78,0,1,0-.8.75A.77.77,0,0,0,985.05,330.86Z" fill="#f8f3dc"/><path d="M983.42,348.08a.77.77,0,0,0-1-.53.78.78,0,1,0,1,.53Z" fill="#f8f3dc"/><path d="M1036.8,263.05a.78.78,0,1,0-1.49.44.76.76,0,0,0,1,.52A.78.78,0,0,0,1036.8,263.05Z" fill="#f8f3dc"/><path d="M993.47,230.73a1.56,1.56,0,1,0,1.56,1.56A1.56,1.56,0,0,0,993.47,230.73Z" fill="#f8f3dc"/><circle cx="1002.9" cy="255.36" r="2.92" fill="#f8f3dc"/><circle cx="1007.59" cy="385.68" r="1.56" fill="#f8f3dc"/><path d="M963.79,317.05a.77.77,0,0,0-.43,1,.79.79,0,0,0,1,.44.78.78,0,0,0-.58-1.45Z" fill="#f8f3dc"/><path d="M1040.16,209.14a.78.78,0,0,0,.35,1.52.78.78,0,1,0-.35-1.52Z" fill="#f8f3dc"/><path d="M1032.75,202.9a.78.78,0,1,0,.36,1.51.77.77,0,0,0,.58-.93A.78.78,0,0,0,1032.75,202.9Z" fill="#f8f3dc"/><circle cx="1027.26" cy="236.47" r="1.56" fill="#f8f3dc"/><path d="M1031.68,255.38a.78.78,0,1,0-.8.75A.77.77,0,0,0,1031.68,255.38Z" fill="#f8f3dc"/><path d="M969.53,330.86a.78.78,0,1,0-.8.75A.77.77,0,0,0,969.53,330.86Z" fill="#f8f3dc"/><path d="M1050.21,257.75a.78.78,0,0,0-.76-.8.77.77,0,0,0-.8.75.78.78,0,0,0,1.56.05Z" fill="#f8f3dc"/><path d="M972.4,345.69a.78.78,0,0,0-.43,1,.77.77,0,0,0,1,.43.78.78,0,1,0-.58-1.44Z" fill="#f8f3dc"/><path d="M974.63,354.93a.78.78,0,1,0,.35,1.52.78.78,0,0,0-.35-1.52Z" fill="#f8f3dc"/><path d="M972.27,335.16a.78.78,0,1,0,.93.58A.77.77,0,0,0,972.27,335.16Z" fill="#f8f3dc"/><path d="M977.59,329a.78.78,0,0,0-.58.94.77.77,0,0,0,.93.58.78.78,0,0,0,.58-.93A.78.78,0,0,0,977.59,329Z" fill="#f8f3dc"/><path d="M964.14,340.45a.78.78,0,0,0-.76-.8.77.77,0,0,0-.8.75.78.78,0,0,0,1.56.05Z" fill="#f8f3dc"/><path d="M986.16,378.11a.78.78,0,1,0,.35,1.51.78.78,0,1,0-.35-1.51Z" fill="#f8f3dc"/><path d="M1025.89,257.48a.78.78,0,1,0-.8.75A.77.77,0,0,0,1025.89,257.48Z" fill="#f8f3dc"/><path d="M1036,236.25a.77.77,0,0,0-1-.53.78.78,0,1,0,1,.53Z" fill="#f8f3dc"/><path d="M1041,228.43a.78.78,0,1,0,.93.58A.77.77,0,0,0,1041,228.43Z" fill="#f8f3dc"/></g><circle cx="73" cy="313.61" r="31.1" fill="#335c64" stroke="#f2ead3" stroke-miterlimit="10" stroke-width="0.5"/><circle cx="238" cy="375" r="23.78" fill="#fadb86" stroke="#f2ead3" stroke-miterlimit="10" stroke-width="0.5"/><circle cx="206.14" cy="232.29" r="14.77" fill="#5d8f76" stroke="#f2ead3" stroke-miterlimit="10" stroke-width="0.5"/><circle cx="924.56" cy="238.02" r="23.78" fill="#a5c986" stroke="#f2ead3" stroke-miterlimit="10" stroke-width="0.5"/><circle cx="66.46" cy="152.17" r="23.78" fill="#adc6b9" stroke="#f2ead3" stroke-miterlimit="10" stroke-width="0.5"/><circle cx="1156.98" cy="289.03" r="21.06" fill="#67a3c1" stroke="#f2ead3" stroke-miterlimit="10" stroke-width="0.5"/><circle cx="1117.75" cy="132.65" r="35.16" fill="#27689e" stroke="#f2ead3" stroke-miterlimit="10" stroke-width="0.5"/><circle cx="161.93" cy="47.36" r="17.84" fill="#c73f69" stroke="#f2ead3" stroke-miterlimit="10" stroke-width="0.5"/><circle cx="1017.81" cy="417" r="37.28" fill="#7895a4" stroke="#f2ead3" stroke-miterlimit="10" stroke-width="0.5"/><path d="M1051.2,433.59c10.29,8.62,16.22,15.11,15,17-2.21,3.24-25.52-8.85-52.05-27s-46.25-35.49-44-38.73c1.23-1.79,8.94,1.13,20.09,7.18" fill="none" stroke="#f2ead3" stroke-miterlimit="10" stroke-width="0.5"/></g></g></svg>